<svg width="132" height="133" viewBox="0 0 132 133" fill="none" xmlns="http://www.w3.org/2000/svg">
<g clip-path="url(#clip0)">
<path d="M81.1587 48.1501C81.032 48.1501 80.9033 48.1257 80.7806 48.079C80.3515 47.9104 80.0899 47.4756 80.143 47.0205L80.1778 46.7218C81.7738 32.4409 77.7664 18.3286 68.8953 6.98755L65.0268 2.04438C64.7877 1.73759 64.7427 1.32312 64.9144 0.973666C65.086 0.626242 65.4416 0.404785 65.8319 0.404785C91.7505 0.404785 112.834 21.368 112.834 47.1343C112.834 47.5711 112.552 47.9591 112.135 48.0973C111.718 48.2375 111.258 48.0932 110.993 47.7438L110.38 46.9311C107.069 42.5406 102.003 40.0233 96.4855 40.0233C90.9658 40.0233 85.8998 42.5406 82.5892 46.9311L81.972 47.7458C81.7779 48.0059 81.4714 48.1501 81.1587 48.1501ZM96.4875 37.9915C101.958 37.9915 107.03 40.2061 110.69 44.1314C109.178 21.5773 90.7635 3.54582 67.9593 2.48526L70.5056 5.73804C79.0824 16.7012 83.2758 30.1633 82.4666 43.9363C86.1082 40.135 91.1027 37.9915 96.4875 37.9915Z" fill="#071D49"/>
<path d="M103.391 34.8952C102.972 34.8952 102.577 34.6372 102.428 34.2186C98.5269 23.3307 90.0277 14.8137 79.1049 10.8539C78.5735 10.6609 78.2997 10.0778 78.4938 9.55157C78.688 9.02536 79.2806 8.75311 79.8038 8.94612C91.3009 13.1152 100.25 22.0791 104.353 33.538C104.543 34.0663 104.265 34.6473 103.734 34.8363C103.62 34.8769 103.505 34.8952 103.391 34.8952Z" fill="#071D49"/>
<path d="M50.5051 48.1501C50.1904 48.1501 49.8839 48.0059 49.6877 47.7438L49.0746 46.9311C45.7641 42.5406 40.6981 40.0233 35.1804 40.0233C29.6607 40.0233 24.5947 42.5406 21.2842 46.9311L20.667 47.7458C20.4054 48.0953 19.9456 48.2395 19.5267 48.0973C19.1118 47.9591 18.8298 47.5711 18.8298 47.1343C18.8298 21.368 39.9133 0.404785 65.8319 0.404785C66.2222 0.404785 66.5778 0.626242 66.7495 0.973666C66.9211 1.32109 66.8762 1.73759 66.6371 2.04438L62.7727 6.98755C53.8995 18.3286 49.8921 32.4409 51.4901 46.7239L51.5228 47.0286C51.5698 47.4837 51.3103 47.9144 50.8812 48.081C50.7565 48.1278 50.6318 48.1501 50.5051 48.1501ZM63.7045 2.48526C40.9004 3.54582 22.4837 21.5773 20.9735 44.1334C24.6336 40.2081 29.7057 37.9915 35.1804 37.9915C40.5611 37.9915 45.5556 40.133 49.1993 43.9384C48.388 30.1674 52.5794 16.7052 61.1603 5.74007L63.7045 2.48526Z" fill="#071D49"/>
<path d="M53.6944 87.8303C53.4144 87.8303 53.1385 87.7165 52.9362 87.495L19.0935 47.815C18.7133 47.3985 18.7481 46.7565 19.167 46.3806C19.586 46.0027 20.2317 46.0373 20.6098 46.4538L54.4525 86.1338C54.8326 86.5503 54.7979 87.1923 54.3789 87.5682C54.1828 87.7449 53.9375 87.8303 53.6944 87.8303Z" fill="#071D49"/>
<path d="M66.2841 83.2057C65.855 83.2057 65.4728 82.9396 65.3237 82.5393L49.5446 47.4837C49.3505 46.9575 49.6243 46.3744 50.1536 46.1794C50.6849 45.9843 51.2714 46.2586 51.4656 46.7848L66.2841 79.2337L80.1982 46.7848C80.3923 46.2586 80.9747 45.9863 81.5101 46.1794C82.0394 46.3724 82.3133 46.9555 82.1191 47.4837L67.2446 82.5393C67.0954 82.9396 66.7133 83.2057 66.2841 83.2057Z" fill="#071D49"/>
<path d="M77.3945 86.3956C77.1513 86.3956 76.906 86.3102 76.7099 86.1335C76.2909 85.7576 76.2562 85.1156 76.6363 84.6991L111.054 46.4537C111.434 46.0392 112.078 46.0047 112.497 46.3806C112.916 46.7564 112.95 47.3985 112.57 47.815L78.1526 86.0603C77.9503 86.2818 77.6744 86.3956 77.3945 86.3956Z" fill="#071D49"/>
<path d="M81.1587 48.1505C80.8419 48.1505 80.5374 48.0042 80.3412 47.7441L79.7282 46.9315C76.4176 42.5409 71.3516 40.0236 65.8339 40.0236C60.3143 40.0236 55.2483 42.5409 51.9377 46.9315L51.3205 47.7462C51.0692 48.0794 50.6359 48.2236 50.2333 48.1139C49.8287 48.0022 49.5324 47.6568 49.4895 47.2423L49.4568 46.9436C47.8015 32.1365 51.9581 17.5021 61.1603 5.74045L65.0267 0.797282C65.413 0.303575 66.2529 0.303575 66.6391 0.797282L70.5076 5.74045C79.7098 17.5021 83.8643 32.1365 82.2111 46.9477L82.1764 47.2484C82.1294 47.6629 81.833 48.0062 81.4284 48.1139C81.3385 48.1383 81.2486 48.1505 81.1587 48.1505ZM65.8339 37.9919C71.4783 37.9919 76.6976 40.3487 80.3801 44.5097C81.3467 30.9906 77.3065 17.7418 68.8932 6.98792L65.8319 3.07484L62.7727 6.98792C54.3593 17.7418 50.3192 30.9886 51.2858 44.5097C54.9683 40.3487 60.1855 37.9919 65.8339 37.9919Z" fill="#071D49"/>
<g clip-path="url(#clip1)">
<path d="M82.8008 118.504C81.9712 117.909 80.9477 117.611 79.958 117.323C79.742 117.26 79.5268 117.197 79.316 117.131C78.1052 116.755 77.3289 116.013 77.239 115.146C77.1664 114.445 77.5661 113.768 78.3078 113.336C78.4646 113.245 78.6392 113.177 78.8261 113.129V114.686C78.8261 115.264 79.2696 115.733 79.8169 115.733C80.364 115.733 80.8078 115.264 80.8078 114.686V113.206C81.3862 113.356 81.9497 113.599 82.4111 113.894C82.8793 114.193 83.4885 114.035 83.7718 113.54C84.0551 113.046 83.9053 112.402 83.4372 112.103C82.704 111.634 81.7756 111.249 80.8079 111.063V110.311C80.8079 109.733 80.3641 109.264 79.817 109.264C79.2698 109.264 78.8261 109.733 78.8261 110.311V111C78.3063 111.078 77.8063 111.238 77.3517 111.503C75.9071 112.344 75.1092 113.827 75.2692 115.374C75.4489 117.11 76.7528 118.517 78.7572 119.14C78.7798 119.147 78.8033 119.153 78.8261 119.16V124.089C78.0061 123.944 77.3277 123.577 77.1103 123.135C76.8583 122.622 76.2604 122.422 75.7746 122.688C75.2889 122.954 75.0994 123.586 75.3513 124.099C75.9539 125.326 77.3519 126.017 78.826 126.194V127.286C78.826 127.864 79.2695 128.333 79.8168 128.333C80.3639 128.333 80.8077 127.864 80.8077 127.286V126.118C81.0131 126.076 81.2137 126.024 81.4061 125.96C82.9602 125.442 84.1162 124.014 84.3508 122.321C84.5644 120.779 83.985 119.352 82.8008 118.504ZM82.3899 122.018C82.2647 122.922 81.6448 123.686 80.8105 123.963C80.8096 123.964 80.8087 123.964 80.8078 123.964V119.784C81.141 119.914 81.4439 120.061 81.6887 120.236C82.4671 120.794 82.4385 121.668 82.3899 122.018Z" fill="#071D49"/>
<path d="M79.8168 105.192C79.4834 105.192 79.1527 105.206 78.8256 105.232V87.1376C78.8256 86.0449 78.1007 84.5031 74.6479 83.3632C72.3091 82.5913 69.2183 82.166 65.9449 82.166C62.6715 82.166 59.5807 82.5913 57.2419 83.3632C53.7889 84.5031 53.0641 86.0449 53.0641 87.1376V118.799C53.0641 119.891 53.7889 121.433 57.2419 122.573C59.5807 123.345 62.6716 123.77 65.9449 123.77C66.5688 123.77 67.1928 123.754 67.8087 123.722C69.6806 128.798 74.3571 132.405 79.8167 132.405C86.9191 132.405 92.6973 126.301 92.6973 118.799C92.6974 111.296 86.9192 105.192 79.8168 105.192ZM57.8329 85.3612C59.9857 84.6506 62.8664 84.2593 65.9449 84.2593C69.0231 84.2593 71.9041 84.6506 74.0568 85.3612C76.3319 86.1122 76.844 86.9154 76.844 87.1376C76.844 87.3598 76.3319 88.163 74.0568 88.9141C71.9041 89.6246 69.0233 90.0159 65.9449 90.0159C62.8664 90.0159 59.9856 89.6246 57.8329 88.914C55.5577 88.163 55.0457 87.3598 55.0457 87.1376C55.0457 86.9155 55.5577 86.1123 57.8329 85.3612ZM55.0457 89.9428C55.6133 90.2834 56.3321 90.6117 57.2419 90.912C59.5807 91.684 62.6716 92.1092 65.9449 92.1092C69.2182 92.1092 72.3091 91.6839 74.6479 90.9121C75.5576 90.6118 76.2763 90.2835 76.844 89.9429V92.4147C76.844 92.6368 76.3319 93.44 74.0568 94.1911C71.904 94.9016 69.0233 95.293 65.9449 95.293C64.5162 95.293 63.1214 95.208 61.7991 95.0406C61.2561 94.9712 60.7625 95.3813 60.6975 95.9552C60.6324 96.5291 61.02 97.0502 61.5633 97.1189C62.9635 97.2962 64.4377 97.3862 65.945 97.3862C69.2184 97.3862 72.3092 96.9609 74.6479 96.189C75.5576 95.8888 76.2763 95.5604 76.844 95.22V102.968C76.844 103.19 76.3319 103.994 74.0568 104.745C71.9041 105.455 69.0233 105.847 65.9449 105.847C62.8664 105.847 59.9855 105.455 57.8329 104.745C55.5577 103.994 55.0456 103.19 55.0456 102.968V100.497C55.6133 100.837 56.332 101.166 57.2418 101.466C59.5807 102.238 62.6715 102.663 65.9448 102.663C67.8949 102.663 69.7625 102.515 71.4956 102.224C72.0361 102.133 72.4044 101.596 72.3183 101.025C72.2322 100.454 71.723 100.066 71.1839 100.156C69.5765 100.427 67.7649 100.57 65.9448 100.57C62.8665 100.57 59.9855 100.178 57.8328 99.4679C55.5576 98.7169 55.0455 97.9137 55.0455 97.6916V89.9428H55.0457ZM65.9449 121.677C62.8666 121.677 59.9856 121.286 57.8329 120.575C55.5577 119.824 55.0456 119.021 55.0456 118.799V116.327C55.6133 116.668 56.332 116.996 57.2418 117.296C59.5806 118.068 62.6715 118.493 65.9448 118.493C66.2763 118.493 66.6084 118.489 66.9393 118.48C66.9369 118.586 66.9356 118.692 66.9356 118.799C66.9356 118.918 66.9372 119.036 66.9401 119.155C66.941 119.192 66.9428 119.229 66.9441 119.266C66.9467 119.347 66.9492 119.429 66.9532 119.51C66.9553 119.554 66.9587 119.599 66.9612 119.643C66.9655 119.716 66.9696 119.789 66.9748 119.862C66.9784 119.911 66.9831 119.96 66.9872 120.009C66.993 120.077 66.9983 120.145 67.0049 120.212C67.0102 120.266 67.0165 120.319 67.0223 120.372C67.0292 120.434 67.0358 120.497 67.0434 120.56C67.0505 120.617 67.0585 120.675 67.0663 120.733C67.074 120.789 67.0814 120.846 67.0897 120.903C67.0991 120.966 67.1093 121.029 67.1196 121.092C67.1276 121.142 67.1355 121.192 67.144 121.242C67.1559 121.311 67.1688 121.38 67.1816 121.449C67.1895 121.491 67.1974 121.534 67.2057 121.576C67.2106 121.602 67.2151 121.628 67.2203 121.654C66.7974 121.669 66.3712 121.677 65.9449 121.677ZM68.0761 113.202C68.0758 113.203 68.0752 113.204 68.0748 113.205C68.04 113.287 68.0061 113.369 67.9727 113.452C67.9632 113.475 67.9533 113.498 67.9441 113.522C67.9286 113.56 67.914 113.599 67.8989 113.638C67.5591 114.51 67.3022 115.428 67.1398 116.379C66.7429 116.393 66.3435 116.4 65.9448 116.4C62.8663 116.4 59.9855 116.009 57.8328 115.298C55.5576 114.547 55.0455 113.744 55.0455 113.522V105.773H55.0456C55.6133 106.114 56.332 106.442 57.2418 106.743C59.5806 107.514 62.6714 107.94 65.9448 107.94C68.5533 107.94 71.0445 107.669 73.1329 107.169C71.9698 107.915 70.9156 108.857 70.0184 109.966C69.7592 110.287 69.5156 110.619 69.2871 110.961C68.2096 111.069 67.0852 111.123 65.9448 111.123C64.5162 111.123 63.1213 111.038 61.799 110.871C61.256 110.802 60.7624 111.212 60.6974 111.786C60.6323 112.359 61.0199 112.881 61.5632 112.949C62.9634 113.127 64.4376 113.217 65.9449 113.217C66.6712 113.217 67.3903 113.193 68.0983 113.151C68.091 113.168 68.0835 113.185 68.0761 113.202ZM79.8168 130.312C74.9354 130.312 70.7933 126.904 69.4098 122.223C69.3929 122.166 69.3772 122.109 69.3613 122.052C69.3345 121.956 69.309 121.86 69.2844 121.763C69.2681 121.698 69.2522 121.633 69.2369 121.568C69.2243 121.514 69.2113 121.461 69.1995 121.406C69.1754 121.296 69.1529 121.186 69.1317 121.075C69.1231 121.03 69.1151 120.985 69.1069 120.939C69.0898 120.843 69.0737 120.746 69.0589 120.65C69.0543 120.62 69.0491 120.59 69.0447 120.559C69.0267 120.436 69.0111 120.312 68.997 120.189C68.9929 120.153 68.9891 120.117 68.9852 120.081C68.9727 119.961 68.9613 119.84 68.9523 119.72C68.9514 119.709 68.9505 119.699 68.9497 119.688C68.9402 119.558 68.9334 119.427 68.9281 119.296C68.9267 119.263 68.9256 119.23 68.9246 119.197C68.9202 119.065 68.9173 118.932 68.9173 118.799C68.9173 118.639 68.9214 118.48 68.9275 118.322C68.9285 118.297 68.9291 118.27 68.9303 118.245C68.9366 118.102 68.9461 117.96 68.9572 117.819C68.9607 117.775 68.9643 117.73 68.9684 117.686C68.9798 117.56 68.9931 117.436 69.0081 117.311C69.0164 117.244 69.0256 117.178 69.0349 117.111C69.0433 117.049 69.0528 116.988 69.0621 116.927C69.0852 116.779 69.1101 116.631 69.1387 116.485C69.139 116.483 69.1394 116.481 69.1398 116.479C69.9567 112.277 72.9476 108.903 76.8113 107.731C76.8272 107.726 76.8428 107.721 76.8586 107.717C76.9479 107.69 77.038 107.665 77.1284 107.64C77.2315 107.613 77.3353 107.586 77.4398 107.562C77.4796 107.553 77.5198 107.543 77.56 107.534C77.6966 107.504 77.8343 107.476 77.973 107.451C78.5725 107.343 79.1885 107.285 79.817 107.285C85.8266 107.285 90.7159 112.45 90.7159 118.799C90.7157 125.147 85.8264 130.312 79.8168 130.312Z" fill="#071D49"/>
<path d="M58.0505 96.4335C58.2041 96.4763 58.3612 96.5179 58.5213 96.558C58.5984 96.5775 58.6756 96.5866 58.7515 96.5866C59.1997 96.5866 59.6062 96.2629 59.7145 95.7819C59.8411 95.2196 59.5123 94.6552 58.98 94.5215C58.8358 94.4853 58.6943 94.4479 58.556 94.4094C58.0265 94.2619 57.4846 94.5956 57.3452 95.1545C57.2055 95.7135 57.5213 96.2861 58.0505 96.4335Z" fill="#071D49"/>
<path d="M74.1485 101.58C74.2421 101.58 74.3375 101.565 74.4318 101.536C74.6267 101.474 74.8231 101.408 75.0155 101.34C75.5338 101.154 75.8115 100.56 75.6358 100.012C75.4601 99.4647 74.8975 99.1714 74.3792 99.357C74.21 99.4176 74.0374 99.4757 73.8659 99.5295C73.3415 99.6945 73.043 100.277 73.1992 100.831C73.3276 101.286 73.7215 101.58 74.1485 101.58Z" fill="#071D49"/>
<path d="M58.9794 110.352C58.835 110.316 58.6932 110.278 58.5547 110.24C58.026 110.094 57.4836 110.427 57.3448 110.987C57.206 111.546 57.5225 112.118 58.0518 112.265C58.2052 112.307 58.3621 112.349 58.5219 112.389C58.5988 112.408 58.6758 112.417 58.7514 112.417C59.2 112.417 59.6065 112.093 59.7146 111.612C59.841 111.049 59.5118 110.485 58.9794 110.352Z" fill="#071D49"/>
</g>
</g>
<defs>
<clipPath id="clip0">
<rect width="130.788" height="132" fill="white" transform="translate(0.437744 0.404785)"/>
</clipPath>
<clipPath id="clip1">
<rect width="47.5594" height="50.2388" fill="white" transform="translate(49.101 82.166)"/>
</clipPath>
</defs>
</svg>
