<svg width="155" height="155" viewBox="0 0 155 155" fill="none" xmlns="http://www.w3.org/2000/svg">
<mask id="path-1-inside-1" fill="white">
<path d="M154.956 116.531C154.725 114.32 153.51 112.365 151.635 111.167L147.091 108.262L141.596 102.769C140.644 101.816 139.105 101.816 138.153 102.769L103.423 68.0371C104.375 67.085 104.375 65.5461 103.423 64.5941L96.5374 57.7057C96.0796 57.2479 95.4636 56.9922 94.8159 56.9922C94.1682 56.9922 93.5498 57.2479 93.0944 57.7057L91.3729 55.9842C91.8307 55.5264 92.0864 54.9104 92.0864 54.2627C92.0864 53.615 91.8307 52.9965 91.3729 52.5412L87.93 49.0982L88.4048 48.6234C88.8065 48.7306 89.218 48.8036 89.6466 48.8036C89.649 48.8036 89.649 48.8036 89.6515 48.8036C90.9517 48.8036 92.174 48.2971 93.0944 47.3767L94.8159 45.6552C95.9043 44.5668 96.3475 43.0864 96.1892 41.6644L101.914 38.8034C104.039 37.7393 105.478 35.7841 105.858 33.4368C106.236 31.092 105.493 28.7837 103.811 27.1036L78.9329 2.22349C77.2528 0.540962 74.9348 -0.199255 72.5997 0.175724C70.2524 0.555572 68.2972 1.99461 67.2331 4.1203L64.3502 9.8862C62.9208 9.74011 61.4307 10.1687 60.3812 11.2181L58.6573 12.9396C57.7369 13.86 57.2304 15.0848 57.2304 16.3874C57.2304 16.8136 57.3059 17.2275 57.4106 17.6293L54.8345 20.2054L49.4874 16.9962C47.5638 15.8445 45.1191 16.144 43.5389 17.7291L39.3362 21.9293C37.7583 23.512 37.4564 25.9567 38.6057 27.8754L41.8149 33.225L39.212 35.8303C37.5855 35.4334 35.769 35.8279 34.5515 37.0453L32.8276 38.7668C31.7392 39.8553 31.2985 41.3357 31.4568 42.7577L25.7298 45.6212C23.6041 46.6852 22.1675 48.638 21.7852 50.9853C21.4054 53.3301 22.1505 55.6409 23.8306 57.321L48.7082 82.201C50.101 83.5938 51.9247 84.3438 53.8435 84.3438C54.2404 84.3438 54.6421 84.3121 55.0414 84.2488C57.3887 83.8689 59.3439 82.4299 60.408 80.3042L63.2715 74.5797C63.4541 74.5992 63.6318 74.6333 63.8169 74.6333C65.1172 74.6333 66.3395 74.1268 67.2599 73.2064L68.9814 71.4849C69.9018 70.5645 70.4082 69.3398 70.4082 68.0371C70.4082 67.6085 70.3328 67.197 70.2281 66.7953L70.7053 66.318L74.1483 69.7634C74.6061 70.2212 75.2245 70.4769 75.8698 70.4769C76.515 70.4769 77.1359 70.2212 77.5913 69.7634L79.3128 71.4849C78.855 71.9427 78.5993 72.5587 78.5993 73.2064C78.5993 73.8541 78.855 74.4726 79.3128 74.9279L86.2012 81.8139C86.676 82.2887 87.2993 82.5273 87.9227 82.5273C88.546 82.5273 89.1693 82.2887 89.6442 81.8139L124.373 116.543C123.916 117.001 123.66 117.617 123.66 118.265C123.66 118.912 123.916 119.531 124.373 119.986L129.701 125.314L132.774 130.072C133.974 131.937 135.93 133.14 138.133 133.373C138.396 133.403 138.659 133.415 138.92 133.415C140.848 133.415 142.694 132.655 144.074 131.274L152.86 122.489C154.433 120.914 155.197 118.742 154.956 116.531ZM71.5892 6.29956C71.9422 5.591 72.5948 5.11132 73.3764 4.9847C74.1605 4.86052 74.925 5.10888 75.4875 5.66648L100.368 30.5465C100.928 31.1066 101.176 31.876 101.049 32.6576C100.923 33.4392 100.443 34.0918 99.7345 34.4448L93.5741 37.525L81.0416 24.9925L68.509 12.4599L71.5892 6.29956ZM63.8218 14.6611L91.3705 42.2098L89.6466 43.9289L62.1003 16.3826L63.8218 14.6611ZM46.9843 21.1721L51.2892 23.7555L48.3381 26.7067L45.3699 29.6748L42.784 25.3699L46.9843 21.1721ZM56.0568 78.1225C55.7037 78.8311 55.0512 79.3108 54.2696 79.4374C53.4977 79.5689 52.721 79.3132 52.1585 78.7556L27.2784 53.8755C26.7184 53.3155 26.47 52.5461 26.5967 51.7645C26.7233 50.9829 27.2029 50.3303 27.9115 49.9772L34.0719 46.8971L46.6044 59.4296L59.137 71.9622L56.0568 78.1225ZM63.8218 69.7586L36.273 42.2098L37.9531 40.5322L65.4994 68.0809L63.8218 69.7586ZM68.9887 61.1487L67.2672 62.8702L43.1639 38.7644L51.764 30.1643L56.9382 24.9925C56.9382 24.9925 56.9382 24.99 56.9407 24.99L60.3837 21.5471L72.4438 33.6097L84.4894 45.6552L82.7728 47.3719C82.7655 47.3743 82.763 47.3743 82.7606 47.3767L68.9887 61.1487ZM75.8746 64.5941L74.1532 62.8702L84.4821 52.5412L86.206 54.2627L75.8746 64.5941ZM81.0391 66.3156L87.9275 59.4272L89.649 61.1487L82.7606 68.0371L81.0391 66.3156ZM87.9275 76.647L84.4821 73.204L94.8135 62.8726L98.2565 66.318L87.9275 76.647ZM93.092 78.3682L99.978 71.4822L134.71 106.214L127.824 113.1L93.092 78.3682ZM149.424 119.046L140.639 127.832C140.113 128.357 139.368 128.613 138.659 128.53C137.924 128.452 137.274 128.053 136.872 127.432L133.66 122.455C133.568 122.309 133.458 122.175 133.336 122.053L129.545 118.262L139.877 107.933L143.838 111.892C143.962 112.017 144.099 112.129 144.247 112.224L149.015 115.272C149.015 115.272 149.015 115.272 149.017 115.272C149.641 115.671 150.045 116.324 150.125 117.057C150.206 117.795 149.947 118.52 149.424 119.046Z"/>
</mask>
<path d="M154.956 116.531C154.725 114.32 153.51 112.365 151.635 111.167L147.091 108.262L141.596 102.769C140.644 101.816 139.105 101.816 138.153 102.769L103.423 68.0371C104.375 67.085 104.375 65.5461 103.423 64.5941L96.5374 57.7057C96.0796 57.2479 95.4636 56.9922 94.8159 56.9922C94.1682 56.9922 93.5498 57.2479 93.0944 57.7057L91.3729 55.9842C91.8307 55.5264 92.0864 54.9104 92.0864 54.2627C92.0864 53.615 91.8307 52.9965 91.3729 52.5412L87.93 49.0982L88.4048 48.6234C88.8065 48.7306 89.218 48.8036 89.6466 48.8036C89.649 48.8036 89.649 48.8036 89.6515 48.8036C90.9517 48.8036 92.174 48.2971 93.0944 47.3767L94.8159 45.6552C95.9043 44.5668 96.3475 43.0864 96.1892 41.6644L101.914 38.8034C104.039 37.7393 105.478 35.7841 105.858 33.4368C106.236 31.092 105.493 28.7837 103.811 27.1036L78.9329 2.22349C77.2528 0.540962 74.9348 -0.199255 72.5997 0.175724C70.2524 0.555572 68.2972 1.99461 67.2331 4.1203L64.3502 9.8862C62.9208 9.74011 61.4307 10.1687 60.3812 11.2181L58.6573 12.9396C57.7369 13.86 57.2304 15.0848 57.2304 16.3874C57.2304 16.8136 57.3059 17.2275 57.4106 17.6293L54.8345 20.2054L49.4874 16.9962C47.5638 15.8445 45.1191 16.144 43.5389 17.7291L39.3362 21.9293C37.7583 23.512 37.4564 25.9567 38.6057 27.8754L41.8149 33.225L39.212 35.8303C37.5855 35.4334 35.769 35.8279 34.5515 37.0453L32.8276 38.7668C31.7392 39.8553 31.2985 41.3357 31.4568 42.7577L25.7298 45.6212C23.6041 46.6852 22.1675 48.638 21.7852 50.9853C21.4054 53.3301 22.1505 55.6409 23.8306 57.321L48.7082 82.201C50.101 83.5938 51.9247 84.3438 53.8435 84.3438C54.2404 84.3438 54.6421 84.3121 55.0414 84.2488C57.3887 83.8689 59.3439 82.4299 60.408 80.3042L63.2715 74.5797C63.4541 74.5992 63.6318 74.6333 63.8169 74.6333C65.1172 74.6333 66.3395 74.1268 67.2599 73.2064L68.9814 71.4849C69.9018 70.5645 70.4082 69.3398 70.4082 68.0371C70.4082 67.6085 70.3328 67.197 70.2281 66.7953L70.7053 66.318L74.1483 69.7634C74.6061 70.2212 75.2245 70.4769 75.8698 70.4769C76.515 70.4769 77.1359 70.2212 77.5913 69.7634L79.3128 71.4849C78.855 71.9427 78.5993 72.5587 78.5993 73.2064C78.5993 73.8541 78.855 74.4726 79.3128 74.9279L86.2012 81.8139C86.676 82.2887 87.2993 82.5273 87.9227 82.5273C88.546 82.5273 89.1693 82.2887 89.6442 81.8139L124.373 116.543C123.916 117.001 123.66 117.617 123.66 118.265C123.66 118.912 123.916 119.531 124.373 119.986L129.701 125.314L132.774 130.072C133.974 131.937 135.93 133.14 138.133 133.373C138.396 133.403 138.659 133.415 138.92 133.415C140.848 133.415 142.694 132.655 144.074 131.274L152.86 122.489C154.433 120.914 155.197 118.742 154.956 116.531ZM71.5892 6.29956C71.9422 5.591 72.5948 5.11132 73.3764 4.9847C74.1605 4.86052 74.925 5.10888 75.4875 5.66648L100.368 30.5465C100.928 31.1066 101.176 31.876 101.049 32.6576C100.923 33.4392 100.443 34.0918 99.7345 34.4448L93.5741 37.525L81.0416 24.9925L68.509 12.4599L71.5892 6.29956ZM63.8218 14.6611L91.3705 42.2098L89.6466 43.9289L62.1003 16.3826L63.8218 14.6611ZM46.9843 21.1721L51.2892 23.7555L48.3381 26.7067L45.3699 29.6748L42.784 25.3699L46.9843 21.1721ZM56.0568 78.1225C55.7037 78.8311 55.0512 79.3108 54.2696 79.4374C53.4977 79.5689 52.721 79.3132 52.1585 78.7556L27.2784 53.8755C26.7184 53.3155 26.47 52.5461 26.5967 51.7645C26.7233 50.9829 27.2029 50.3303 27.9115 49.9772L34.0719 46.8971L46.6044 59.4296L59.137 71.9622L56.0568 78.1225ZM63.8218 69.7586L36.273 42.2098L37.9531 40.5322L65.4994 68.0809L63.8218 69.7586ZM68.9887 61.1487L67.2672 62.8702L43.1639 38.7644L51.764 30.1643L56.9382 24.9925C56.9382 24.9925 56.9382 24.99 56.9407 24.99L60.3837 21.5471L72.4438 33.6097L84.4894 45.6552L82.7728 47.3719C82.7655 47.3743 82.763 47.3743 82.7606 47.3767L68.9887 61.1487ZM75.8746 64.5941L74.1532 62.8702L84.4821 52.5412L86.206 54.2627L75.8746 64.5941ZM81.0391 66.3156L87.9275 59.4272L89.649 61.1487L82.7606 68.0371L81.0391 66.3156ZM87.9275 76.647L84.4821 73.204L94.8135 62.8726L98.2565 66.318L87.9275 76.647ZM93.092 78.3682L99.978 71.4822L134.71 106.214L127.824 113.1L93.092 78.3682ZM149.424 119.046L140.639 127.832C140.113 128.357 139.368 128.613 138.659 128.53C137.924 128.452 137.274 128.053 136.872 127.432L133.66 122.455C133.568 122.309 133.458 122.175 133.336 122.053L129.545 118.262L139.877 107.933L143.838 111.892C143.962 112.017 144.099 112.129 144.247 112.224L149.015 115.272C149.015 115.272 149.015 115.272 149.017 115.272C149.641 115.671 150.045 116.324 150.125 117.057C150.206 117.795 149.947 118.52 149.424 119.046Z" fill="#0047BB" stroke="#0047BB" stroke-width="2" mask="url(#path-1-inside-1)"/>
<path d="M24.3785 113.558L24.3469 108.768C24.3396 107.468 24.8387 106.241 25.7518 105.316C26.6674 104.388 27.8873 103.874 29.1899 103.867L24.3785 113.558ZM24.3785 113.558C24.3858 114.86 24.8996 116.08 25.8273 116.993L24.3785 113.558ZM43.3287 118.306V118.306L43.3579 123.24L43.3579 123.24C43.3732 125.647 41.4263 127.618 39.0185 127.636L36.538 127.65L36.038 127.653L36.041 128.153L36.0526 130.057L32.1803 130.082L32.1687 128.179L32.1656 127.679L31.6654 127.682L27.2956 127.71L27.2704 123.841L38.9937 123.766L39.4937 123.763L39.4905 123.263L39.4589 118.329L39.4556 117.829L38.9556 117.833L29.2825 117.896H29.2824H29.2823H29.2823H29.2822H29.2821H29.282H29.282H29.2819H29.2818H29.2818H29.2817H29.2816H29.2815H29.2815H29.2814H29.2813H29.2813H29.2812H29.2811H29.281H29.281H29.2809H29.2808H29.2808H29.2807H29.2806H29.2805H29.2805H29.2804H29.2803H29.2803H29.2802H29.2801H29.28H29.28H29.2799H29.2798H29.2798H29.2797H29.2796H29.2795H29.2795H29.2794H29.2793H29.2793H29.2792H29.2791H29.279H29.279H29.2789H29.2788H29.2788H29.2787H29.2786H29.2786H29.2785H29.2784H29.2783H29.2783H29.2782H29.2781H29.2781H29.278H29.2779H29.2778H29.2778H29.2777H29.2776H29.2776H29.2775H29.2774H29.2773H29.2773H29.2772H29.2771H29.2771H29.277H29.2769H29.2768H29.2768H29.2767H29.2766H29.2766H29.2765H29.2764H29.2763H29.2763H29.2762H29.2761H29.2761H29.276H29.2759H29.2758H29.2758H29.2757H29.2756H29.2756H29.2755H29.2754H29.2753H29.2753H29.2752H29.2751H29.2751H29.275H29.2749H29.2748H29.2748H29.2747H29.2746H29.2746H29.2745H29.2744H29.2743H29.2743H29.2742H29.2741H29.2741H29.274H29.2739H29.2738H29.2738H29.2737H29.2736H29.2736H29.2735H29.2734H29.2733H29.2733H29.2732H29.2731H29.2731H29.273H29.2729H29.2728H29.2728H29.2727H29.2726H29.2726H29.2725H29.2724H29.2723H29.2723H29.2722H29.2721H29.2721H29.272H29.2719H29.2718H29.2718H29.2717H29.2716H29.2716H29.2715H29.2714H29.2713H29.2713H29.2712H29.2711H29.2711H29.271H29.2709H29.2708H29.2708H29.2707H29.2706H29.2706H29.2705H29.2704H29.2703H29.2703H29.2702H29.2701H29.2701H29.27H29.2699H29.2698H29.2698H29.2697H29.2696H29.2696H29.2695H29.2694H29.2693H29.2693H29.2692H29.2691H29.2691H29.269H29.2689H29.2688H29.2688H29.2687H29.2686H29.2686H29.2685H29.2684H29.2683H29.2683H29.2682H29.2681H29.2681H29.268H29.2679H29.2678H29.2678H29.2677H29.2676H29.2676H29.2675H29.2674H29.2674H29.2673H29.2672H29.2671H29.2671H29.267H29.2669H29.2669H29.2668H29.2667H29.2666H29.2666H29.2665H29.2664H29.2664H29.2663H29.2662H29.2661H29.2661H29.266H29.2659H29.2659H29.2658H29.2657H29.2656H29.2656H29.2655H29.2654H29.2654H29.2653H29.2652H29.2651H29.2651H29.265H29.2649H29.2649H29.2648H29.2647H29.2646H29.2646H29.2645H29.2644H29.2644H29.2643H29.2642H29.2641H29.2641H29.264H29.2639H29.2639H29.2638H29.2637H29.2636H29.2636H29.2635H29.2634H29.2634H29.2633H29.2632H29.2631H29.2631H29.263H29.2629H29.2629H29.2628H29.2627H29.2626H29.2626H29.2625H29.2624H29.2624H29.2623H29.2622H29.2621H29.2621H29.262H29.2619H29.2619H29.2618H29.2617H29.2616H29.2616H29.2615H29.2614H29.2614H29.2613H29.2612H29.2611H29.2611H29.261H29.2609H29.2609H29.2608H29.2607H29.2606H29.2606H29.2605H29.2604H29.2604H29.2603H29.2602H29.2601H29.2601H29.26H29.2599H29.2599H29.2598H29.2597H29.2596H29.2596H29.2595H29.2594H29.2594H29.2593H29.2592H29.2591H29.2591H29.259H29.2589H29.2589H29.2588H29.2587H29.2586H29.2586H29.2585H29.2584H29.2584H29.2583H29.2582H29.2581H29.2581H29.258H29.2579H29.2579H29.2578H29.2577H29.2576H29.2576H29.2575H29.2574H29.2574H29.2573H29.2572H29.2571H29.2571H29.257H29.2569H29.2569H29.2568H29.2567H29.2566H29.2566H29.2565H29.2564H29.2564H29.2563H29.2562H29.2562H29.2561H29.256H29.2559H29.2559H29.2558H29.2557H29.2557H29.2556H29.2555H29.2554H29.2554H29.2553H29.2552H29.2552H29.2551H29.255H29.2549H29.2549H29.2548H29.2547H29.2547H29.2546H29.2545H29.2544H29.2544H29.2543H29.2542H29.2542H29.2541H29.254H29.2539H29.2539H29.2538H29.2537H29.2537H29.2536H29.2535H29.2534H29.2534H29.2533H29.2532H29.2532H29.2531H29.253H29.2529H29.2529H29.2528H29.2527H29.2527H29.2526H29.2525H29.2524H29.2524H29.2523H29.2522H29.2522H29.2521H29.252H29.2519H29.2519H29.2518H29.2517H29.2517H29.2516H29.2515H29.2514H29.2514H29.2513H29.2512H29.2512H29.2511H29.251H29.2509H29.2509H29.2508H29.2507H29.2507H29.2506H29.2505H29.2504H29.2504H29.2503H29.2502H29.2502H29.2501H29.25H29.2499H29.2499H29.2498H29.2497H29.2497H29.2496H29.2495H29.2494H29.2494H29.2493H29.2492H29.2492H29.2491H29.249H29.2489H29.2489H29.2488H29.2487H29.2487H29.2486H29.2485H29.2484H29.2484H29.2483H29.2482H29.2482H29.2481H29.248H29.2479H29.2479H29.2478H29.2477H29.2477H29.2476H29.2475H29.2474H29.2474H29.2473H29.2472H29.2472H29.2471H29.247H29.2469H29.2469H29.2468H29.2467H29.2467H29.2466H29.2465H29.2464H29.2464H29.2463H29.2462H29.2462H29.2461H29.246H29.2459C28.0892 117.896 27.0028 117.451 26.1785 116.638L26.1781 116.637C25.3454 115.818 24.8851 114.725 24.8785 113.555L24.8785 113.554L24.8469 108.765C24.8469 108.765 24.8469 108.765 24.8469 108.765C24.8404 107.597 25.2878 106.498 26.1077 105.667C26.93 104.834 28.0228 104.373 29.1928 104.367L29.1934 104.367L31.6721 104.35L32.1716 104.346L32.1687 103.847L32.157 101.865L36.0269 101.838L36.0386 103.821L36.0415 104.321L36.5418 104.318L40.88 104.29L40.9052 108.159L29.216 108.234L28.7161 108.237L28.7192 108.737L28.7484 113.527L28.7514 114.027L29.2514 114.024L38.9272 113.965H38.9273H38.9274H38.9274H38.9275H38.9276H38.9276H38.9277H38.9278H38.9279H38.9279H38.928H38.9281H38.9281H38.9282H38.9283H38.9284H38.9284H38.9285H38.9286H38.9286H38.9287H38.9288H38.9289H38.9289H38.929H38.9291H38.9291H38.9292H38.9293H38.9294H38.9294H38.9295H38.9296H38.9296H38.9297H38.9298H38.9299H38.9299H38.93H38.9301H38.9301H38.9302H38.9303H38.9304H38.9304H38.9305H38.9306H38.9306H38.9307H38.9308H38.9308H38.9309H38.931H38.9311H38.9311H38.9312H38.9313H38.9313H38.9314H38.9315H38.9316H38.9316H38.9317H38.9318H38.9318H38.9319H38.932H38.9321H38.9321H38.9322H38.9323H38.9323H38.9324H38.9325H38.9326H38.9326H38.9327H38.9328H38.9328H38.9329H38.933H38.9331H38.9331H38.9332H38.9333H38.9333H38.9334H38.9335H38.9336H38.9336H38.9337H38.9338H38.9338H38.9339H38.934H38.9341H38.9341H38.9342H38.9343H38.9343H38.9344H38.9345H38.9346H38.9346H38.9347H38.9348H38.9348H38.9349H38.935H38.9351H38.9351H38.9352H38.9353H38.9353H38.9354H38.9355H38.9356H38.9356H38.9357H38.9358H38.9358H38.9359H38.936H38.9361H38.9361H38.9362H38.9363H38.9363H38.9364H38.9365H38.9366H38.9366H38.9367H38.9368H38.9368H38.9369H38.937H38.9371H38.9371H38.9372H38.9373H38.9373H38.9374H38.9375H38.9376H38.9376H38.9377H38.9378H38.9378H38.9379H38.938H38.9381H38.9381H38.9382H38.9383H38.9383H38.9384H38.9385H38.9386H38.9386H38.9387H38.9388H38.9388H38.9389H38.939H38.9391H38.9391H38.9392H38.9393H38.9393H38.9394H38.9395H38.9396H38.9396H38.9397H38.9398H38.9398H38.9399H38.94H38.9401H38.9401H38.9402H38.9403H38.9403H38.9404H38.9405H38.9406H38.9406H38.9407H38.9408H38.9408H38.9409H38.941H38.9411H38.9411H38.9412H38.9413H38.9413H38.9414H38.9415H38.9416H38.9416H38.9417H38.9418H38.9418H38.9419H38.942H38.942H38.9421H38.9422H38.9423H38.9423H38.9424H38.9425H38.9425H38.9426H38.9427H38.9428H38.9428H38.9429H38.943H38.943H38.9431H38.9432H38.9433H38.9433H38.9434H38.9435H38.9435H38.9436H38.9437H38.9438H38.9438H38.9439H38.944H38.944H38.9441H38.9442H38.9443H38.9443H38.9444H38.9445H38.9445H38.9446H38.9447H38.9448H38.9448H38.9449H38.945H38.945H38.9451H38.9452H38.9453H38.9453H38.9454H38.9455H38.9455H38.9456H38.9457H38.9458H38.9458H38.9459H38.946H38.946H38.9461H38.9462H38.9463H38.9463H38.9464H38.9465H38.9465H38.9466H38.9467H38.9468H38.9468H38.9469H38.947H38.947H38.9471H38.9472H38.9473H38.9473H38.9474H38.9475H38.9475H38.9476H38.9477H38.9478H38.9478H38.9479H38.948H38.948H38.9481H38.9482H38.9483H38.9483H38.9484H38.9485H38.9485H38.9486H38.9487H38.9488H38.9488H38.9489H38.949H38.949H38.9491H38.9492H38.9493H38.9493H38.9494H38.9495H38.9495H38.9496H38.9497H38.9498H38.9498H38.9499H38.95H38.95H38.9501H38.9502H38.9503H38.9503H38.9504H38.9505H38.9505H38.9506H38.9507H38.9508H38.9508H38.9509H38.951H38.951H38.9511H38.9512H38.9513H38.9513H38.9514H38.9515H38.9515H38.9516H38.9517H38.9518H38.9518H38.9519H38.952H38.952H38.9521H38.9522H38.9523H38.9523H38.9524H38.9525H38.9525H38.9526H38.9527H38.9528H38.9528H38.9529H38.953H38.953H38.9531H38.9532H38.9532H38.9533H38.9534H38.9535H38.9535H38.9536H38.9537H38.9537H38.9538H38.9539H38.954H38.954H38.9541H38.9542H38.9542H38.9543H38.9544H38.9545H38.9545H38.9546H38.9547H38.9547H38.9548H38.9549H38.955H38.955H38.9551H38.9552H38.9552H38.9553H38.9554H38.9555H38.9555H38.9556H38.9557H38.9557H38.9558H38.9559H38.956H38.956H38.9561H38.9562H38.9562H38.9563H38.9564H38.9565H38.9565H38.9566H38.9567H38.9567H38.9568H38.9569H38.957H38.957H38.9571H38.9572H38.9572H38.9573H38.9574H38.9575H38.9575H38.9576H38.9577H38.9577H38.9578H38.9579H38.958H38.958H38.9581H38.9582H38.9582H38.9583H38.9584H38.9585H38.9585H38.9586H38.9587H38.9587H38.9588H38.9589H38.959H38.959H38.9591H38.9592H38.9592H38.9593H38.9594H38.9595H38.9595H38.9596H38.9597H38.9597H38.9598H38.9599H38.96H38.96H38.9601H38.9602H38.9602H38.9603H38.9604H38.9605H38.9605H38.9606H38.9607H38.9607H38.9608H38.9609H38.961H38.961H38.9611H38.9612H38.9612H38.9613H38.9614H38.9615H38.9615H38.9616H38.9617H38.9617H38.9618H38.9619H38.962H38.962H38.9621H38.9622H38.9622H38.9623H38.9624H38.9625H38.9625H38.9626H38.9627H38.9627H38.9628H38.9629H38.963H38.963H38.9631H38.9632H38.9632H38.9633H38.9634H38.9635H38.9635H38.9636H38.9637H38.9637C40.1179 113.965 41.2043 114.41 42.0287 115.224C42.862 116.046 43.3222 117.139 43.3287 118.306Z" fill="#0047BB" stroke="#0047BB"/>
<path d="M63.308 140.31H50.196C51.8639 139.205 53.4344 137.929 54.8759 136.475C60.3642 130.926 63.3592 123.573 63.3105 115.774C63.2082 99.7396 50.1108 86.7688 34.0743 86.7688C34.011 86.7688 33.9453 86.7688 33.882 86.7688C26.0732 86.8199 18.7514 89.9001 13.263 95.4469C7.77472 100.996 4.77976 108.35 4.83089 116.149C4.88202 123.945 7.96951 131.257 13.5284 136.736C14.892 138.08 16.3676 139.273 17.9284 140.31H4.86985C2.18413 140.31 0 142.494 0 145.18V152.485C0 153.831 1.09085 154.92 2.43492 154.92H65.743C67.087 154.92 68.1779 153.831 68.1779 152.485V145.18C68.1779 142.494 65.9938 140.31 63.308 140.31ZM16.9422 133.268C12.3134 128.703 9.7397 122.611 9.69831 116.114C9.65691 109.618 12.1503 103.494 16.7231 98.8725C21.2959 94.2486 27.4002 91.6773 33.9112 91.6359C33.9648 91.6359 34.0159 91.6359 34.0695 91.6359C47.4348 91.6359 58.3505 102.442 58.4358 115.805C58.4772 122.301 55.9814 128.425 51.4086 133.047C46.8358 137.671 40.7314 140.242 34.2204 140.283C34.1669 140.283 34.1133 140.283 34.0597 140.283C27.6096 140.284 21.5369 137.797 16.9422 133.268ZM63.308 150.05H4.86985V145.18H63.308V150.05Z" fill="#0047BB"/>
</svg>
