<svg width="126" height="125" viewBox="0 0 126 125" fill="none" xmlns="http://www.w3.org/2000/svg">
<path d="M25.8589 27.0833V26.5833H25.3589H9.19226V10.4167C9.19226 4.85988 13.5521 0.5 19.1089 0.5H96.1923C101.749 0.5 106.109 4.85988 106.109 10.4167V104.167V104.667H106.609H116.526V114.583C116.526 120.14 112.166 124.5 106.609 124.5H35.7756C30.2188 124.5 25.8589 120.14 25.8589 114.583V27.0833ZM25.3589 23.4167H25.8589V22.9167V10.4167C25.8589 6.59845 22.9271 3.66667 19.1089 3.66667C15.2907 3.66667 12.3589 6.59845 12.3589 10.4167V22.9167V23.4167H12.8589H25.3589ZM27.4423 3.66667H26.5079L27.0263 4.44407C28.2393 6.26313 29.0256 8.2511 29.0256 10.4167V114.583C29.0256 118.402 31.9574 121.333 35.7756 121.333C39.5938 121.333 42.5256 118.402 42.5256 114.583V104.667H102.442H102.942V104.167V10.4167C102.942 6.59845 100.01 3.66667 96.1923 3.66667H27.4423ZM113.359 108.333V107.833H112.859H46.1923H45.6923V108.333V114.583C45.6923 116.776 45.0978 118.748 43.7143 120.526L43.0864 121.333H44.1089H106.609C110.427 121.333 113.359 118.402 113.359 114.583V108.333Z" fill="#0047BB" stroke="#0047BB"/>
<path d="M82.1089 67.1667H97.7756V70.3334H82.1089V67.1667Z" fill="#0047BB" stroke="#0047BB"/>
<path d="M34.1922 67.1667H76.9422V70.3334H34.1922V67.1667Z" fill="#0047BB" stroke="#0047BB"/>
<path d="M57.1089 75.5H97.7756V78.6667H57.1089V75.5Z" fill="#0047BB" stroke="#0047BB"/>
<path d="M34.1922 75.5H51.9422V78.6667H34.1922V75.5Z" fill="#0047BB" stroke="#0047BB"/>
<path d="M71.6923 92.1667H97.7756V95.3334H71.6923V92.1667Z" fill="#0047BB" stroke="#0047BB"/>
<path d="M34.1922 92.1667H66.5255V95.3334H34.1922V92.1667Z" fill="#0047BB" stroke="#0047BB"/>
<path d="M62.7192 42.0837L62.7192 42.0837C55.3582 37.1761 50.8589 28.7898 50.8589 20.0001V13.4865L64.9422 8.85955L79.0256 13.4865V20.0001C79.0256 28.7898 74.5262 37.1761 67.1653 42.0837L67.1652 42.0837L64.9422 43.566L62.7192 42.0837ZM54.3646 15.5686L54.0256 15.6839V16.042V19.7916C54.0256 27.6421 57.8357 35.0811 64.4181 39.35L64.5895 39.5206L64.7358 39.6662H64.9422H65.1508H65.3041L65.4311 39.5802C72.0264 35.1134 75.8589 27.8744 75.8589 20.0001V16.042V15.6839L75.5199 15.5686L65.1032 12.0265L64.9422 11.9718L64.7813 12.0265L54.3646 15.5686Z" fill="#0047BB" stroke="#0047BB"/>
<path d="M62.4914 29.7052C65.1785 27.6251 66.9393 24.5054 67.4557 21.1703L70.6429 21.4893C70.1244 25.7578 67.728 29.6687 64.236 32.4006L62.4914 29.7052Z" fill="#0047BB" stroke="#0047BB"/>
<path d="M46.6923 83.8333H97.7756V86.9999H46.6923V83.8333Z" fill="#0047BB" stroke="#0047BB"/>
<path d="M34.1922 83.8333H41.5255V86.9999H34.1922V83.8333Z" fill="#0047BB" stroke="#0047BB"/>
<path d="M57.1089 58.8333H97.7756V61.9999H57.1089V58.8333Z" fill="#0047BB" stroke="#0047BB"/>
<path d="M34.1922 58.8333H51.9422V61.9999H34.1922V58.8333Z" fill="#0047BB" stroke="#0047BB"/>
<path d="M50.8589 48.4167H79.0256V51.5834H50.8589V48.4167Z" fill="#0047BB" stroke="#0047BB"/>
</svg>
