<svg width="146" height="147" viewBox="0 0 146 147" fill="none" xmlns="http://www.w3.org/2000/svg">
<g clip-path="url(#clip0)">
<path d="M8.64606 101.033C8.99582 101.834 9.77666 102.308 10.5976 102.308C10.8805 102.308 11.1701 102.252 11.4464 102.132C12.5269 101.668 13.027 100.412 12.5692 99.3277L10.5943 100.15L12.5658 99.3232C12.1103 98.2339 10.856 97.7215 9.76775 98.1771C8.67836 98.6349 8.16486 99.888 8.62156 100.976C8.62601 100.986 8.64161 101.023 8.64606 101.033Z" fill="#0047BB"/>
<path d="M5.69753 92.7292C5.9838 93.6449 6.82702 94.2308 7.73818 94.2308C7.94871 94.2308 8.16369 94.1996 8.37644 94.1327C9.49145 93.7841 10.1186 92.6078 9.79108 91.4906C9.47585 90.3578 8.30515 89.6905 7.16787 90.0013C6.02836 90.3121 5.35668 91.4872 5.66746 92.6268C5.67414 92.6524 5.68973 92.7047 5.69753 92.7292Z" fill="#0047BB"/>
<path d="M5.14842 77.3061C5.16959 77.3061 5.19075 77.3061 5.21303 77.3049C6.39376 77.2704 7.32274 76.2857 7.28821 75.105L7.2871 75.076C7.25257 73.8953 6.27457 72.9808 5.08716 73.0154C3.90532 73.0499 2.97745 74.049 3.01198 75.2298C3.04651 76.3893 3.99666 77.3061 5.14842 77.3061Z" fill="#0047BB"/>
<path d="M3.79612 84.0317C3.95652 85.091 4.8688 85.8496 5.90806 85.8496C6.01499 85.8496 6.12304 85.8418 6.23109 85.8251C7.39845 85.6491 8.20268 84.5586 8.02557 83.3912L5.90695 83.6831L8.02223 83.3712C7.85069 82.2027 6.76241 81.394 5.59506 81.5667C4.42658 81.7393 3.61901 82.8254 3.79055 83.9938C3.79167 83.9972 3.79612 84.0284 3.79612 84.0317Z" fill="#0047BB"/>
<path d="M4.81425 57.6036C4.80534 57.6371 4.79755 57.6694 4.79086 57.7039C4.55249 58.8612 5.29768 59.9918 6.45502 60.2302C6.59982 60.2603 6.74574 60.2748 6.88832 60.2748C7.87077 60.2736 8.75298 59.5931 8.97353 58.6006C9.24532 57.4555 8.54022 56.306 7.39626 56.0286C6.24672 55.7512 5.09161 56.4563 4.81425 57.6036ZM7.09662 58.1573L6.89278 58.1071L7.10776 58.1595L7.09662 58.1573Z" fill="#0047BB"/>
<path d="M3.34947 66.3712C3.22583 67.5341 4.06125 68.5834 5.22638 68.7204C5.31103 68.7304 5.39569 68.7348 5.47923 68.7348C6.54857 68.7348 7.47198 67.934 7.60008 66.8457L7.60899 66.7566C7.71258 65.5803 6.84375 64.5455 5.66859 64.4408C4.50235 64.3339 3.46197 65.2016 3.34947 66.3712Z" fill="#0047BB"/>
<path d="M8.60812 51.9239C8.8554 52.0164 9.10937 52.0609 9.35888 52.0609C10.2244 52.0609 11.0397 51.5318 11.3617 50.673L11.3717 50.6463C11.7861 49.5402 11.2258 48.3071 10.1197 47.8928C9.01358 47.4773 7.7805 48.0376 7.36613 49.1437L7.35611 49.1704C6.94174 50.2765 7.50203 51.5096 8.60812 51.9239Z" fill="#0047BB"/>
<path d="M141.17 57.6092C140.892 56.4608 139.738 55.759 138.589 56.0364C137.448 56.3126 136.744 57.4599 137.01 58.6028C137.229 59.5975 138.113 60.2792 139.095 60.2792C139.239 60.2792 139.384 60.2647 139.529 60.2346C140.686 59.9974 141.431 58.8657 141.192 57.7094C141.186 57.6749 141.178 57.6426 141.17 57.6092Z" fill="#0047BB"/>
<path d="M138.626 49.1469C138.211 48.0408 136.98 47.4816 135.872 47.896C134.766 48.3104 134.206 49.5423 134.62 50.6484L134.63 50.6763C134.952 51.534 135.767 52.0642 136.633 52.0642C136.883 52.0642 137.137 52.0196 137.384 51.9272C138.49 51.5128 139.05 50.2797 138.636 49.1736L138.626 49.1469Z" fill="#0047BB"/>
<path d="M140.261 64.4519C139.093 64.5878 138.256 65.646 138.384 66.8134C138.493 67.9139 139.421 68.7404 140.51 68.7393C140.573 68.7393 140.637 68.7371 140.7 68.7315C141.876 68.6279 142.746 67.5898 142.643 66.4135L142.634 66.3233C142.496 65.1503 141.432 64.3138 140.261 64.4519Z" fill="#0047BB"/>
<path d="M133.446 99.3178C132.973 100.401 133.466 101.661 134.549 102.135C134.828 102.257 135.118 102.315 135.405 102.315C136.229 102.315 137.014 101.835 137.365 101.033C137.37 101.023 137.385 100.986 137.39 100.976C137.846 99.887 137.335 98.6317 136.245 98.175C135.155 97.7194 133.903 98.2296 133.446 99.3178Z" fill="#0047BB"/>
<path d="M138.281 94.2341C139.192 94.2341 140.036 93.6482 140.321 92.7326C140.329 92.7081 140.345 92.6557 140.352 92.6301C140.662 91.4917 139.991 90.3188 138.851 90.0069C137.717 89.6972 136.548 90.3622 136.229 91.4906C135.899 92.6078 136.526 93.7874 137.643 94.1361C137.855 94.2029 138.069 94.2341 138.281 94.2341Z" fill="#0047BB"/>
<path d="M142.219 84.0353C142.221 84.0319 142.225 84.0007 142.225 83.9974C142.397 82.8312 141.59 81.7596 140.423 81.5858C139.26 81.4121 138.168 82.2285 137.991 83.3948C137.814 84.5621 138.617 85.6526 139.786 85.8298C139.894 85.8465 140.002 85.8543 140.109 85.8543C141.147 85.8543 142.059 85.0946 142.219 84.0353Z" fill="#0047BB"/>
<path d="M142.99 75.1986C143.021 74.0201 142.094 73.0388 140.915 73.0042C139.732 72.9675 138.75 73.8987 138.714 75.0794C138.714 75.0995 138.713 75.1496 138.713 75.1707C138.713 76.3515 139.671 77.3094 140.852 77.3094C142.023 77.3094 142.976 76.3671 142.99 75.1986ZM141.163 75.1518L140.853 75.1418L141.189 75.1518H141.163Z" fill="#0047BB"/>
<path d="M82.8958 8.51557C83.0049 8.53116 83.1119 8.54007 83.2188 8.54007C84.2581 8.54007 85.1703 7.7804 85.3307 6.72109C85.5078 5.55373 84.7047 4.46323 83.5363 4.28612C83.5329 4.28612 83.5017 4.28055 83.4984 4.28055C82.3321 4.1079 81.2606 4.91658 81.0868 6.08283C80.9119 7.24907 81.7295 8.33846 82.8958 8.51557Z" fill="#0047BB"/>
<path d="M57.6172 9.54934C57.7776 9.54934 57.9413 9.53151 58.1039 9.49253C59.2434 9.24079 59.973 8.12021 59.7369 6.9729C59.4985 5.81668 58.369 5.07038 57.2106 5.30986C57.1772 5.31655 57.1438 5.32434 57.1103 5.33214C55.963 5.61061 55.2602 6.76572 55.5375 7.91303C55.7748 8.89214 56.6514 9.54934 57.6172 9.54934Z" fill="#0047BB"/>
<path d="M66.0549 8.13457C66.1373 8.13457 66.222 8.13011 66.3066 8.12009C66.3166 8.11897 66.3412 8.11675 66.3512 8.11452C67.5252 7.97751 68.3718 6.91374 68.2337 5.74081C68.0966 4.56789 67.0418 3.72913 65.8689 3.86502C65.8588 3.86614 65.8343 3.86948 65.8243 3.87059C64.6503 4.00871 63.8026 5.07248 63.9407 6.24541C64.0688 7.33368 64.9855 8.13457 66.0549 8.13457Z" fill="#0047BB"/>
<path d="M98.8189 13.0615C99.0985 13.1829 99.3881 13.2408 99.6755 13.2408C100.499 13.2408 101.284 12.7618 101.636 11.9587C102.108 10.8771 101.616 9.61619 100.533 9.14278C100.523 9.13721 100.487 9.12273 100.477 9.11828C99.3881 8.66047 98.1327 9.17286 97.676 10.2622C97.2193 11.3516 97.7295 12.6036 98.8189 13.0615Z" fill="#0047BB"/>
<path d="M90.9916 10.279C91.1932 10.338 91.3959 10.3659 91.5964 10.3659C92.5065 10.3659 93.3508 9.77997 93.6371 8.86546C93.9891 7.73709 93.3608 6.53854 92.2336 6.18544C92.2079 6.17764 92.1567 6.16205 92.1311 6.15648C90.9938 5.8457 89.8198 6.51738 89.5079 7.65577C89.1982 8.7886 89.8632 9.96042 90.9916 10.279Z" fill="#0047BB"/>
<path d="M74.5806 7.79039C74.6018 7.79039 74.6508 7.7915 74.672 7.7915C75.8538 7.7915 76.8106 6.83467 76.8106 5.65283C76.8106 4.48102 75.8683 3.52975 74.6998 3.51416C74.6809 3.51416 74.6608 3.51416 74.643 3.51416C73.4901 3.51416 72.54 4.43089 72.5054 5.58934C72.4709 6.77007 73.3999 7.75586 74.5806 7.79039Z" fill="#0047BB"/>
<path d="M49.3989 12.0177C49.6484 12.0177 49.9023 11.9731 50.1496 11.8807L50.1764 11.8707C51.2825 11.4563 51.8427 10.2232 51.4284 9.11713C51.0129 8.01104 49.7809 7.45186 48.6748 7.86512L48.6481 7.87514C47.542 8.29062 46.9817 9.52259 47.3961 10.6287C47.718 11.4875 48.5323 12.0177 49.3989 12.0177Z" fill="#0047BB"/>
<path d="M115.658 22.9293C115.917 24.2637 116.73 25.46 117.909 26.1785L120.036 27.4751C120.045 27.4795 120.054 27.4862 120.064 27.4918L120.281 27.6243C121.064 28.1011 121.942 28.3406 122.82 28.3406C123.698 28.3406 124.575 28.1011 125.359 27.6243L127.731 26.1785V26.1774C129.176 25.2974 130.072 23.699 130.072 22.0059V15.6522C130.072 12.7294 127.697 10.3501 124.775 10.3501H120.864C117.943 10.3501 115.566 12.7294 115.566 15.6522V22.0059C115.566 22.2554 115.589 22.5027 115.626 22.7455C115.634 22.8079 115.644 22.8691 115.658 22.9293ZM119.845 15.6522C119.845 15.0875 120.303 14.6274 120.865 14.6274H124.775C125.338 14.6274 125.796 15.0875 125.796 15.6522V22.0059C125.796 22.2175 125.684 22.4158 125.504 22.526L123.133 23.9719C122.94 24.0888 122.701 24.0888 122.508 23.9719L122.191 23.7781C122.191 23.7781 122.189 23.7781 122.188 23.7769L120.135 22.5249C119.956 22.4158 119.845 22.2164 119.845 22.0059V15.6522Z" fill="#0047BB"/>
<path d="M66.3467 138.898L66.2565 138.889C65.0791 138.782 64.0454 139.653 63.9418 140.829C63.8371 142.001 64.7015 143.037 65.8711 143.148C65.9479 143.156 66.0237 143.161 66.0994 143.161C67.1688 143.161 68.0933 142.36 68.2203 141.271C68.3584 140.098 67.5196 139.035 66.3467 138.898Z" fill="#0047BB"/>
<path d="M82.8913 138.473L83.1843 140.592L82.8724 138.476C81.7039 138.648 80.8964 139.734 81.0679 140.903C81.2238 141.967 82.1372 142.731 83.1809 142.731C83.2845 142.731 83.3892 142.724 83.4951 142.707C83.4984 142.707 83.5296 142.703 83.5318 142.702C84.7003 142.526 85.5034 141.435 85.3263 140.268C85.1492 139.099 84.0554 138.296 82.8913 138.473Z" fill="#0047BB"/>
<path d="M90.9916 136.712C89.8588 137.028 89.1927 138.199 89.5023 139.336C89.7619 140.287 90.624 140.912 91.5641 140.912C91.7513 140.912 91.9406 140.887 92.1289 140.836C92.1545 140.829 92.2057 140.814 92.2314 140.806C93.3586 140.454 93.9868 139.254 93.6349 138.127C93.2862 137.012 92.1088 136.386 90.9916 136.712Z" fill="#0047BB"/>
<path d="M50.1719 135.14L50.1452 135.129C49.0391 134.715 47.8071 135.275 47.3916 136.381C46.9773 137.488 47.5375 138.721 48.6436 139.135L48.6704 139.145C48.9177 139.238 49.1716 139.281 49.4211 139.281C50.2866 139.281 51.102 138.752 51.4239 137.893C51.8383 136.787 51.278 135.554 50.1719 135.14Z" fill="#0047BB"/>
<path d="M98.8312 133.939L99.6532 135.912L98.8256 133.941C97.7362 134.398 97.2238 135.651 97.6805 136.74C98.0247 137.559 98.8178 138.052 99.6543 138.052C99.9295 138.052 100.21 137.999 100.48 137.885C100.49 137.881 100.527 137.866 100.537 137.861C101.614 137.391 102.1 136.141 101.636 135.06C101.171 133.98 99.915 133.482 98.8312 133.939Z" fill="#0047BB"/>
<path d="M74.6051 139.205L74.5761 139.206C73.3954 139.241 72.4809 140.225 72.5154 141.406C72.5499 142.565 73.5135 143.481 74.6663 143.481C74.6875 143.481 74.7087 143.481 74.7309 143.48C75.9117 143.446 76.8395 142.461 76.805 141.279C76.7705 140.1 75.7903 139.175 74.6051 139.205Z" fill="#0047BB"/>
<path d="M58.1006 137.527C56.9555 137.256 55.806 137.96 55.5286 139.104C55.2501 140.252 55.9552 141.407 57.1036 141.686C57.1359 141.695 57.1694 141.703 57.2039 141.709C57.3498 141.739 57.4946 141.754 57.6372 141.754C58.6308 141.754 59.5219 141.057 59.7302 140.045C59.9652 138.9 59.2379 137.78 58.1006 137.527Z" fill="#0047BB"/>
<path d="M72.2047 58.175C71.1364 58.2285 70.0705 58.3967 69.039 58.6741C67.8984 58.9804 67.2222 60.1533 67.5286 61.2939C67.8349 62.4346 69.0089 63.1107 70.1484 62.8044C70.8892 62.6061 71.6533 62.4847 72.4208 62.4457C75.5987 62.2831 78.5839 63.4315 80.8262 65.6737C83.0684 67.9149 84.2146 70.9012 84.0531 74.0792C83.7702 79.6698 79.1687 84.2702 73.5792 84.5531C70.4013 84.718 67.4149 83.5684 65.1738 81.3262C62.9315 79.085 61.7853 76.0987 61.9457 72.9207C62.0493 70.8823 62.7255 68.9107 63.9017 67.2187C64.5767 66.2485 64.3373 64.9163 63.3671 64.2424C62.3969 63.5674 61.0646 63.808 60.3907 64.7771C58.7578 67.1251 57.8188 69.8664 57.6751 72.7046C57.4545 77.0432 59.0853 81.2872 62.1485 84.3515C65.029 87.232 68.9532 88.8449 73.0189 88.8449C73.2762 88.8449 73.5358 88.8382 73.7953 88.826C81.5502 88.4328 87.9328 82.0502 88.3249 74.2964C88.5455 69.9578 86.9147 65.7127 83.8515 62.6495C80.7883 59.5852 76.5455 57.9578 72.2047 58.175Z" fill="#0047BB"/>
<path d="M97.3764 87.4169L95.4204 85.1367C96.0275 83.9694 96.5432 82.7519 96.9598 81.5032L100.001 81.3183C102.611 81.1602 104.656 78.987 104.656 76.3727V71.0438C104.656 68.4696 102.645 66.2997 100.079 66.1037C100.078 66.1037 100.078 66.1037 100.078 66.1037L97.0823 65.8742C96.6847 64.6233 96.1879 63.398 95.5986 62.2195L97.6214 59.935C99.3547 57.9778 99.2633 54.996 97.4143 53.148L93.6471 49.3797C91.8259 47.5596 88.8696 47.4471 86.9169 49.1235L84.6368 51.0795C83.4695 50.4724 82.252 49.9567 81.0022 49.5401L80.8173 46.4992C80.6591 43.8893 78.487 41.8442 75.8727 41.8442H70.5439C67.9697 41.8442 65.7987 43.8548 65.6026 46.4223L65.3743 49.4176C63.9931 49.8542 62.6486 50.4112 61.362 51.0795L59.083 49.1235C57.1281 47.4471 54.173 47.5596 52.3529 49.3797L48.5846 53.148C46.7355 54.996 46.6453 57.9778 48.3785 59.9361L50.4002 62.2207C49.811 63.3992 49.3142 64.6233 48.9176 65.8753L45.9213 66.1037C43.3549 66.2997 41.3443 68.4707 41.3443 71.0438V76.3727C41.3443 78.9881 43.3883 81.1602 45.9981 81.3183L49.0391 81.5032C49.4557 82.7519 49.9714 83.9705 50.5785 85.1379L48.6225 87.4169C46.9461 89.3707 47.0586 92.3269 48.8787 94.147L52.647 97.9153C54.496 99.7644 57.4768 99.8546 59.435 98.1214L61.7196 96.0997C62.8981 96.6889 64.1223 97.1868 65.3743 97.5834L65.6026 100.579C65.7987 103.145 67.9697 105.156 70.5427 105.156H75.8716C78.487 105.156 80.6591 103.112 80.8173 100.502L81.0022 97.4597C82.1216 97.0855 83.2188 96.6299 84.2793 96.0997L86.5638 98.1214C88.521 99.8546 91.5028 99.7644 93.3519 97.9153L97.1202 94.147C98.9403 92.3269 99.0528 89.3707 97.3764 87.4169ZM94.096 91.1228L90.3277 94.89C90.0748 95.144 89.6671 95.1551 89.3998 94.9189L86.6218 92.4595C85.5881 91.545 84.0788 91.3656 82.8668 92.0139C81.6672 92.6566 80.4029 93.1813 79.1097 93.5745C77.7964 93.9733 76.8574 95.1662 76.7738 96.543L76.5488 100.242C76.5266 100.599 76.2303 100.878 75.8727 100.878H70.5439C70.1919 100.878 69.8956 100.603 69.8688 100.252L69.5892 96.6009C69.4845 95.2253 68.5255 94.0457 67.2044 93.6669C65.8009 93.2648 64.4308 92.709 63.1342 92.0161C62.6475 91.7555 62.1128 91.6274 61.5804 91.6274C60.7862 91.6274 59.9964 91.9114 59.3771 92.4595L56.599 94.9189C56.3317 95.1551 55.924 95.1428 55.6723 94.89L51.904 91.1228C51.6545 90.8733 51.64 90.4689 51.8683 90.2016L54.2543 87.4213C55.1521 86.3754 55.3069 84.8627 54.6397 83.6597C53.929 82.3776 53.3532 81.0165 52.9265 79.613C52.5255 78.2975 51.3326 77.3573 49.9558 77.2738L46.2577 77.0488C45.9012 77.0265 45.6216 76.7302 45.6216 76.3727V71.0438C45.6216 70.6918 45.8968 70.3955 46.2477 70.3688L49.899 70.0892C51.2735 69.9845 52.4531 69.0254 52.833 67.7043C53.2351 66.2997 53.7909 64.9308 54.4838 63.6353C55.1332 62.42 54.9549 60.9107 54.0404 59.877L51.581 57.1001C51.3437 56.8328 51.356 56.4251 51.6088 56.1722L55.3771 52.4039C55.6255 52.1555 56.0298 52.1399 56.2972 52.3683L59.0763 54.7542C60.1245 55.652 61.6361 55.808 62.8368 55.1408C64.2181 54.3755 65.6873 53.7673 67.2055 53.3318C68.5255 52.9531 69.4845 51.7746 69.5892 50.3989L69.8677 46.7476C69.8945 46.3967 70.1919 46.1216 70.5439 46.1216H75.8727C76.2292 46.1216 76.5266 46.4012 76.5477 46.7576L76.7727 50.4568C76.8574 51.8336 77.7975 53.0266 79.113 53.4265C80.5165 53.8531 81.8777 54.429 83.1598 55.1396C84.3628 55.8069 85.8743 55.652 86.9225 54.7542L89.7017 52.3694C89.9679 52.1399 90.3734 52.1544 90.6217 52.4039L94.39 56.1722C94.6429 56.4251 94.6552 56.8316 94.4179 57.1001L91.9595 59.877C91.0439 60.9107 90.8657 62.42 91.5151 63.6342C92.2079 64.9308 92.7638 66.2997 93.167 67.7043C93.5468 69.0254 94.7253 69.9845 96.0999 70.0892L99.7512 70.3688C100.103 70.3955 100.377 70.6918 100.377 71.0438V76.3727C100.377 76.7302 100.099 77.0265 99.7412 77.0488L96.0431 77.2738C94.6663 77.3573 93.4733 78.2975 93.0734 79.613C92.6468 81.0165 92.0698 82.3776 91.3591 83.6597C90.6919 84.8638 90.8468 86.3754 91.7457 87.4225L94.1305 90.2016C94.36 90.4689 94.3444 90.8733 94.096 91.1228Z" fill="#0047BB"/>
<path d="M6.81145 40.1144C6.90501 40.2225 7.00861 40.3227 7.12334 40.4107C8.43773 41.6772 9.89915 42.79 11.482 43.7201C11.5978 43.8159 11.7237 43.9028 11.8629 43.9752C11.9476 44.0197 12.0345 44.0565 12.1225 44.0888C15.4174 45.8877 19.1946 46.9125 23.2068 46.9125C29.4713 46.9125 35.16 44.4129 39.3393 40.364C39.4641 40.2659 39.5788 40.1557 39.679 40.0331C43.8383 35.8371 46.4125 30.0671 46.4125 23.7057C46.4125 19.7057 45.3955 15.9397 43.6055 12.6503C43.5777 12.5701 43.5476 12.491 43.5097 12.4131C43.4262 12.2404 43.3204 12.0856 43.2012 11.9475C39.16 5.10371 31.7125 0.5 23.2068 0.5C10.4104 0.5 0 10.9104 0 23.7068C0 30.1072 2.60539 35.9117 6.81145 40.1144ZM10.9607 38.1239C11.1812 37.7586 11.4653 37.4133 11.8095 37.098C12.7529 36.2314 14.0462 35.7547 15.453 35.7547H31.0107C32.4176 35.7547 33.713 36.2314 34.6554 37.0969C34.9907 37.4055 35.268 37.7407 35.4852 38.0938C32.177 40.922 27.8896 42.6352 23.2068 42.6352C18.5396 42.6352 14.2645 40.9343 10.9607 38.1239ZM23.2068 4.77734C33.644 4.77734 42.1352 13.2685 42.1352 23.7068C42.1352 27.8939 40.7662 31.7669 38.4538 34.9059C38.1797 34.5706 37.8779 34.2498 37.5493 33.9468C35.8127 32.354 33.4903 31.4773 31.0107 31.4773H15.453C12.9713 31.4773 10.6488 32.3551 8.91782 33.9457C8.57697 34.2587 8.26508 34.5918 7.98215 34.9404C5.65634 31.7959 4.27734 27.9095 4.27734 23.7068C4.27734 13.2685 12.7685 4.77734 23.2068 4.77734Z" fill="#0047BB"/>
<path d="M18.3213 26.1785L20.6939 27.6232C21.4769 28.1011 22.3547 28.3406 23.2324 28.3406C24.1102 28.3406 24.9879 28.1011 25.771 27.6243L28.1436 26.1785V26.1774C29.5883 25.2974 30.485 23.699 30.485 22.0059V15.6522C30.485 12.7294 28.1079 10.3501 25.1873 10.3501H21.2775C18.3558 10.3501 15.9788 12.7294 15.9788 15.6522V22.0059C15.9788 23.699 16.8766 25.2974 18.3213 26.1785ZM20.2561 15.6522C20.2561 15.0875 20.7139 14.6274 21.2775 14.6274H25.1873C25.7509 14.6274 26.2076 15.0875 26.2076 15.6522V22.0059C26.2076 22.2175 26.0962 22.4158 25.9169 22.526L23.5443 23.9719C23.3516 24.0888 23.1132 24.0888 22.9205 23.9719L20.5479 22.526C20.3686 22.4158 20.2572 22.2175 20.2572 22.0059V15.6522H20.2561Z" fill="#0047BB"/>
<path d="M106.397 40.1122C106.491 40.2225 106.597 40.3239 106.713 40.4141C110.888 44.433 116.555 46.9125 122.793 46.9125C126.792 46.9125 130.557 45.8955 133.844 44.1077C133.927 44.0799 134.007 44.0476 134.087 44.0086C134.26 43.9251 134.413 43.8204 134.553 43.7001C136.142 42.7622 137.608 41.6405 138.926 40.364C139.052 40.2659 139.166 40.1557 139.267 40.0331C143.426 35.8371 146 30.0671 146 23.7068C146 10.9104 135.59 0.5 122.793 0.5C109.998 0.5 99.5875 10.9104 99.5875 23.7068C99.5875 30.1061 102.192 35.9095 106.397 40.1122ZM110.548 38.1239C110.769 37.7586 111.053 37.4133 111.398 37.098C112.34 36.2314 113.634 35.7547 115.04 35.7547H130.598C132.005 35.7547 133.301 36.2314 134.243 37.0969C134.578 37.4055 134.857 37.7407 135.074 38.0938C131.764 40.922 127.477 42.6352 122.793 42.6352C118.127 42.6352 113.852 40.9343 110.548 38.1239ZM122.793 4.77734C133.231 4.77734 141.723 13.2685 141.723 23.7068C141.723 27.8939 140.353 31.7669 138.042 34.9059C137.767 34.5706 137.465 34.2498 137.137 33.9468C135.4 32.354 133.079 31.4773 130.598 31.4773H115.04C112.559 31.4773 110.237 32.3551 108.506 33.9457C108.164 34.2587 107.853 34.5918 107.571 34.9404C105.244 31.7959 103.865 27.9095 103.865 23.7057C103.865 13.2685 112.357 4.77734 122.793 4.77734Z" fill="#0047BB"/>
<path d="M23.2068 100.087C16.45 100.087 10.0417 103.025 5.62515 108.145C4.85434 109.04 4.95348 110.391 5.84793 111.162C6.74239 111.933 8.09242 111.833 8.86435 110.939C12.4678 106.762 17.6953 104.365 23.2068 104.365C33.644 104.365 42.1352 112.856 42.1352 123.293C42.1352 127.481 40.7662 131.354 38.4538 134.493C38.1797 134.158 37.879 133.837 37.5493 133.534C35.8127 131.941 33.4903 131.064 31.0107 131.064H15.453C12.9713 131.064 10.6488 131.942 8.91782 133.533C8.57697 133.846 8.26508 134.179 7.98215 134.528C5.65634 131.383 4.27734 127.497 4.27734 123.293C4.27734 121.666 4.48453 120.051 4.8911 118.491C5.18962 117.348 4.50569 116.18 3.36284 115.881C2.21999 115.583 1.05151 116.268 0.752991 117.41C0.253967 119.322 0 121.301 0 123.293C0 129.695 2.60539 135.499 6.81145 139.702C6.90501 139.811 7.00861 139.91 7.12334 139.999C11.2971 144.019 16.9657 146.5 23.2068 146.5C29.4702 146.5 35.1589 144 39.3382 139.952C39.463 139.854 39.5788 139.744 39.679 139.621C41.048 138.239 42.2421 136.685 43.2312 134.998C43.3226 134.886 43.4061 134.768 43.4752 134.637C43.5186 134.553 43.5543 134.469 43.5855 134.383C45.3866 131.086 46.4125 127.308 46.4125 123.293C46.4125 110.498 36.0021 100.087 23.2068 100.087ZM10.9607 137.711C11.1812 137.346 11.4653 137.001 11.8095 136.685C12.7529 135.819 14.0462 135.341 15.453 135.341H31.0107C32.4176 135.341 33.713 135.82 34.6554 136.684C34.9896 136.993 35.268 137.328 35.4852 137.681C32.177 140.509 27.8896 142.223 23.2068 142.223C18.5396 142.223 14.2645 140.522 10.9607 137.711Z" fill="#0047BB"/>
<path d="M30.485 121.593V115.241C30.485 112.317 28.109 109.938 25.1873 109.938H21.2775C18.3558 109.938 15.9788 112.317 15.9788 115.241V121.593C15.9788 123.286 16.8766 124.885 18.3213 125.765L20.6939 127.212C21.4769 127.688 22.3547 127.928 23.2324 127.928C24.1102 127.928 24.9879 127.688 25.771 127.212L28.1436 125.765C29.5883 124.885 30.485 123.286 30.485 121.593ZM26.2076 121.593C26.2076 121.805 26.0962 122.004 25.9169 122.112L23.5443 123.559C23.3516 123.677 23.1132 123.676 22.9205 123.559L20.5468 122.112C20.3686 122.003 20.2561 121.805 20.2561 121.593V115.241C20.2561 114.675 20.7139 114.215 21.2775 114.215H25.1873C25.7509 114.215 26.2076 114.675 26.2076 115.241V121.593Z" fill="#0047BB"/>
<path d="M122.793 100.087C109.998 100.087 99.5875 110.498 99.5875 123.293C99.5875 129.694 102.192 135.497 106.397 139.7C106.491 139.81 106.597 139.911 106.713 140.001C110.888 144.02 116.555 146.5 122.793 146.5C128.952 146.5 134.753 144.113 139.126 139.779C139.76 139.152 139.918 138.225 139.6 137.448C139.185 135.991 138.343 134.644 137.137 133.534C135.4 131.941 133.079 131.064 130.598 131.064H115.04C112.559 131.064 110.236 131.942 108.506 133.533C108.164 133.846 107.853 134.179 107.571 134.528C105.244 131.383 103.865 127.497 103.865 123.293C103.865 112.856 112.356 104.365 122.793 104.365C133.231 104.365 141.723 112.856 141.723 123.293C141.723 125.686 141.283 128.016 140.416 130.219C139.984 131.319 140.524 132.56 141.624 132.993C142.723 133.425 143.964 132.884 144.397 131.785C145.46 129.081 146 126.224 146 123.294C146 110.498 135.59 100.087 122.793 100.087ZM111.398 136.685C112.34 135.819 113.634 135.341 115.04 135.341H130.598C132.005 135.341 133.301 135.819 134.243 136.684C134.58 136.995 134.86 137.334 135.077 137.689C131.653 140.62 127.345 142.223 122.793 142.223C118.127 142.223 113.852 140.522 110.548 137.711C110.769 137.346 111.053 137.001 111.398 136.685Z" fill="#0047BB"/>
<path d="M130.074 121.593V115.241C130.074 112.317 127.697 109.938 124.775 109.938H120.865C117.943 109.938 115.567 112.317 115.567 115.241V121.593C115.567 123.286 116.464 124.885 117.909 125.765L120.281 127.212C121.064 127.688 121.942 127.928 122.82 127.928C123.698 127.928 124.575 127.688 125.358 127.212L127.731 125.765C129.176 124.885 130.074 123.286 130.074 121.593ZM125.796 121.593C125.796 121.805 125.685 122.004 125.506 122.112H125.504L123.132 123.559C122.939 123.677 122.7 123.676 122.508 123.559L120.135 122.112C119.956 122.003 119.845 121.805 119.845 121.593V115.241C119.845 114.675 120.303 114.215 120.865 114.215H124.775C125.338 114.215 125.796 114.675 125.796 115.241V121.593Z" fill="#0047BB"/>
</g>
<defs>
<clipPath id="clip0">
<rect width="146" height="146" fill="white" transform="translate(0 0.5)"/>
</clipPath>
</defs>
</svg>
