<svg width="343" height="71" viewBox="0 0 343 71" fill="none" xmlns="http://www.w3.org/2000/svg">
<path d="M17.1392 0H25.8052C27.6774 0 28.7437 1.4813 28.1859 3.30575L17.009 39.8289H36.4321V1.73193C36.4321 0.776133 37.1914 0 38.1275 0H48.304C49.2401 0 50.0003 0.776133 50.0003 1.73193V69.2681C50.0003 70.2239 49.2401 71 48.304 71H38.1275C37.1914 71 36.4321 70.2239 36.4321 69.2681V51.9515H2.51096C0.638762 51.9515 -0.416106 50.4738 0.155758 48.6538L14.9257 1.64838C15.2116 0.738404 16.2031 0 17.1392 0Z" fill="#5BD0E4"/>
<path d="M139.416 0H148.143C150.028 0 151.101 1.4813 150.54 3.30575L139.285 39.8289H158.843V1.73193C158.843 0.776133 159.608 0 160.55 0H170.798C171.74 0 172.505 0.776133 172.505 1.73193V69.2681C172.505 70.2238 171.74 71 170.798 71H160.55C159.608 71 158.843 70.2238 158.843 69.2681V51.9515H124.687C122.802 51.9515 121.739 50.4738 122.315 48.6538L137.188 1.64838C137.475 0.738404 138.474 0 139.416 0Z" fill="#255FAA"/>
<path d="M121.391 59.243H130.117C132.002 59.243 133.066 60.7216 132.492 62.5425L130.399 69.1773C130.082 70.1834 128.978 71 127.936 71H119.337C117.452 71 116.394 69.5241 116.976 67.7059L119.157 60.8905C119.448 59.9814 120.449 59.243 121.391 59.243Z" fill="#255FAA"/>
<path d="M243.481 5.68827V13.0121C243.481 14.0586 244.297 14.7874 245.303 14.6379L253.079 13.481V59.3371H244.17C243.252 59.3371 242.506 60.106 242.506 61.0528V69.2843C242.506 70.2311 243.252 71 244.17 71H274.842C275.76 71 276.506 70.2311 276.506 69.2843V61.0528C276.506 60.106 275.76 59.3371 274.842 59.3371H266.577V2.84685C266.577 0.953167 265.112 -0.29535 263.307 0.0606065L245.116 3.64953C244.213 3.8284 243.481 4.74143 243.481 5.68827Z" fill="#079AD7"/>
<path d="M309.106 0H317.832C319.718 0 320.791 1.4813 320.229 3.30575L308.974 39.8298H328.532V1.73193C328.532 0.776133 329.298 0 330.24 0H340.487C341.43 0 342.195 0.776133 342.195 1.73193V69.2681C342.195 70.2238 341.43 71 340.487 71H330.24C329.298 71 328.532 70.2238 328.532 69.2681V51.9515H294.377C292.491 51.9515 291.428 50.4738 292.004 48.6538L306.877 1.64928C307.165 0.739302 308.164 0 309.106 0Z" fill="#255FAA"/>
<path d="M291.081 59.2439H299.807C301.692 59.2439 302.756 60.7216 302.182 62.5425L300.089 69.1773C299.771 70.1834 298.668 71 297.626 71H289.027C287.142 71 286.084 69.5241 286.665 67.7059L288.846 60.8905C289.137 59.9814 290.138 59.2439 291.081 59.2439Z" fill="#255FAA"/>
<path d="M60.0112 53.6076C59.6871 64.0525 66.5265 71.0903 83.4859 70.9272C98.5755 71.724 106.402 65.9678 106.816 53.6076V47.1948C106.816 46.2622 106.069 45.5049 105.149 45.5049H95.1506C94.2308 45.5049 93.4848 46.2622 93.4848 47.1948V53.6076C92.8814 56.7737 91.3704 58.6705 88.9016 59.2473C84.9217 59.9398 81.3135 59.9906 78.3174 59.2473C75.5892 58.9204 73.9952 57.0577 73.4869 53.6076V17.3205C73.7869 15.1283 75.0006 14.0326 76.2471 13.1481C78.9424 11.4056 86.597 10.9305 90.1904 13.1481C91.2312 13.8187 92.8468 14.8513 93.4848 17.3205V22.8646C93.4848 23.7973 94.2308 24.5546 95.1506 24.5546H105.149C106.069 24.5546 106.816 23.7973 106.816 22.8646V17.3205C106.11 5.93332 98.317 0.142877 83.4859 0C68.1196 0.11921 60.3121 5.90965 60.0112 17.3205V53.6076Z" fill="#079AD7"/>
<path d="M232.496 53.1047C232.829 63.4526 224.392 71.1457 206.952 70.984C206.551 71.0044 198.974 71.0053 184.219 70.9867C183.274 70.9849 182.506 70.2081 182.506 69.2525V42.7127C182.506 41.7733 183.261 41.0108 184.191 41.0108H194.53C195.46 41.0108 196.215 41.7733 196.215 42.7127V49.0372V58.2418C196.215 58.7869 196.653 59.2297 197.193 59.2297H210.365C213.64 58.9755 217.99 56.7644 218.132 52.4939V17.1582C217.505 14.1262 215.054 12.2743 210.727 11.5514H196.215V31.3958C196.215 32.3352 195.46 33.0977 194.53 33.0977H184.191C183.261 33.0977 182.506 32.3352 182.506 31.3958V0C189.234 0.0940011 197.682 0.0940011 207.85 0C223.651 0.118549 232.187 5.5763 232.496 16.8807V53.1047Z" fill="#5BD0E4"/>
</svg>
