<svg width="116" height="253" viewBox="0 0 116 253" fill="none" xmlns="http://www.w3.org/2000/svg">
<path d="M79.601 182H88.327C90.2122 182 91.2859 183.481 90.7234 185.306L79.469 221.83H99.0268V183.732C99.0268 182.776 99.7923 182 100.735 182H110.982C111.925 182 112.689 182.776 112.689 183.732V251.268C112.689 252.224 111.925 253 110.982 253H100.735C99.7923 253 99.0268 252.224 99.0268 251.268V233.951H64.8712C62.986 233.951 61.9229 232.474 62.4988 230.654L77.3712 183.649C77.6591 182.739 78.6584 182 79.601 182Z" fill="#255FAA"/>
<path d="M61.5756 241.244H70.3016C72.1868 241.244 73.2507 242.722 72.6767 244.542L70.5833 251.177C70.2653 252.183 69.1623 253 68.1205 253H59.5212C57.636 253 56.5783 251.524 57.1594 249.706L59.3405 242.891C59.6319 241.981 60.633 241.244 61.5756 241.244Z" fill="#255FAA"/>
<path d="M14.9757 187.688V195.012C14.9757 196.059 15.7917 196.787 16.7976 196.638L24.5732 195.481V241.337H15.6648C14.746 241.337 14 242.106 14 243.053V251.284C14 252.231 14.746 253 15.6648 253H46.3361C47.2548 253 48 252.231 48 251.284V243.053C48 242.106 47.2548 241.337 46.3361 241.337H38.0718V184.847C38.0718 182.953 36.6065 181.705 34.8019 182.061L16.6103 185.65C15.708 185.828 14.9757 186.741 14.9757 187.688Z" fill="#079AD7"/>
<path d="M115.99 144.105C116.324 154.453 107.886 162.146 90.4463 161.984C90.0457 162.004 82.4682 162.005 67.7139 161.987C66.768 161.985 66 161.208 66 160.252V133.713C66 132.773 66.7556 132.011 67.6854 132.011H78.0245C78.9543 132.011 79.709 132.773 79.709 133.713V140.037V149.242C79.709 149.787 80.1472 150.23 80.6877 150.23H93.8598C97.1346 149.976 101.484 147.764 101.626 143.494V108.158C101 105.126 98.5489 103.274 94.2216 102.551H79.709V122.396C79.709 123.335 78.9543 124.098 78.0245 124.098H67.6854C66.7556 124.098 66 123.335 66 122.396V91C72.7286 91.094 81.1766 91.094 91.3441 91C107.146 91.1185 115.681 96.5763 115.99 107.881V144.105Z" fill="#5BD0E4"/>
<path d="M22.6003 91H31.3264C33.2116 91 34.2853 92.4813 33.7236 94.3058L22.4692 130.829H42.0271V92.7319C42.0271 91.7761 42.7916 91 43.7342 91H53.9814C54.924 91 55.6894 91.7761 55.6894 92.7319V160.268C55.6894 161.224 54.924 162 53.9814 162H43.7342C42.7916 162 42.0271 161.224 42.0271 160.268V142.951H7.87057C5.98539 142.951 4.9232 141.474 5.49903 139.654L20.3714 92.6484C20.6593 91.7384 21.6577 91 22.6003 91Z" fill="#255FAA"/>
<path d="M4.57511 150.243H13.3012C15.1863 150.243 16.2503 151.722 15.6762 153.543L13.5829 160.177C13.2657 161.183 12.1619 162 11.1201 162H2.52073C0.635543 162 -0.422222 160.524 0.15981 158.706L2.34089 151.891C2.63146 150.981 3.63252 150.243 4.57511 150.243Z" fill="#255FAA"/>
<path d="M66.0112 53.6076C65.687 64.0525 72.5265 71.0903 89.4858 70.9272C104.575 71.724 112.402 65.9678 112.816 53.6076V47.1948C112.816 46.2622 112.069 45.5049 111.149 45.5049H101.151C100.231 45.5049 99.4848 46.2622 99.4848 47.1948V53.6076C98.8814 56.7737 97.3704 58.6705 94.9015 59.2473C90.9217 59.9398 87.3135 59.9906 84.3174 59.2473C81.5892 58.9204 79.9952 57.0577 79.4869 53.6076V17.3205C79.7869 15.1283 81.0005 14.0326 82.247 13.1481C84.9424 11.4056 92.5969 10.9305 96.1904 13.1481C97.2312 13.8187 98.8468 14.8513 99.4848 17.3205V22.8646C99.4848 23.7973 100.231 24.5546 101.151 24.5546H111.149C112.069 24.5546 112.816 23.7973 112.816 22.8646V17.3205C112.11 5.93332 104.317 0.142877 89.4858 0C74.1196 0.11921 66.312 5.90965 66.0112 17.3205V53.6076Z" fill="#079AD7"/>
<path d="M23.1392 0H31.8051C33.6773 0 34.7436 1.4813 34.1858 3.30575L23.009 39.8289H42.4321V1.73193C42.4321 0.776133 43.1914 0 44.1275 0H54.304C55.2401 0 56.0002 0.776133 56.0002 1.73193V69.2681C56.0002 70.2239 55.2401 71 54.304 71H44.1275C43.1914 71 42.4321 70.2239 42.4321 69.2681V51.9515H8.51093C6.63874 51.9515 5.58387 50.4738 6.15573 48.6538L20.9256 1.64838C21.2116 0.738404 22.2031 0 23.1392 0Z" fill="white"/>
</svg>
