<svg width="133" height="133" viewBox="0 0 133 133" fill="none" xmlns="http://www.w3.org/2000/svg">
<g clip-path="url(#clip0)">
<path d="M75.8365 10.0598L74.772 14.1859C81.9873 16.0424 88.3658 20.4133 92.7367 26.4959C94.4834 27.5077 96.6415 25.9776 96.1943 24.0092C91.2422 17.1218 84.012 12.1676 75.8365 10.0598Z" fill="#071D49"/>
<path d="M66.7881 8.9209V13.179C68.1251 13.179 69.4685 13.262 70.7821 13.4259L71.3102 9.20193C69.8241 9.01458 68.3018 8.9209 66.7881 8.9209Z" fill="#071D49"/>
<path d="M132.198 98.3403H113.627V85.5661H85.7066C100.916 78.4232 111.498 63.0005 111.498 45.1145C111.498 20.4624 91.4423 0.404785 66.7881 0.404785C42.1339 0.404785 22.0784 20.4624 22.0784 45.1145C22.0784 63.0005 32.6597 78.4232 47.8695 85.5661H19.9494V98.3403H1.37781L11.1096 115.373L1.37781 132.405H41.2397V119.631H92.3365V132.405H132.198L122.467 115.373L132.198 98.3403ZM26.3365 45.1145C26.3365 22.8086 44.4822 4.66285 66.7881 4.66285C89.0939 4.66285 107.24 22.8086 107.24 45.1145C107.24 66.4708 90.5907 83.9714 69.5963 85.4234L99.2175 47.3393L89.2174 32.3403H44.3587L34.3586 47.3393L63.9799 85.4234C42.9855 83.9714 26.3365 66.4708 26.3365 45.1145ZM81.9787 45.1145L87.8889 38.0227L92.6154 45.1145H81.9787ZM92.2407 49.3725L71.7232 75.7534L79.0513 49.3725H92.2407ZM77.4332 43.9179L71.3335 36.5983H83.5308L77.4332 43.9179ZM72.8877 45.1145H60.6884L66.7881 37.7949L72.8877 45.1145ZM56.1429 43.9179L50.0432 36.5983H62.2405L56.1429 43.9179ZM51.5974 45.1145H40.9608L45.6872 38.0227L51.5974 45.1145ZM54.5248 49.3725L61.853 75.7534L41.3355 49.3725H54.5248ZM58.9426 49.3725H74.6336L66.7881 77.612L58.9426 49.3725ZM8.71445 128.147L16.0149 115.373L8.71445 102.598H19.9494V118.566L32.7236 128.147H8.71445ZM36.9816 126.018L28.4655 119.631H36.9816V126.018ZM24.2074 115.373V89.8241H109.369V115.373H24.2074ZM96.5945 119.631H105.111L96.5945 126.018V119.631ZM124.862 128.147H100.853L113.627 118.566V102.598H124.862L117.561 115.373L124.862 128.147Z" fill="#071D49"/>
</g>
<defs>
<clipPath id="clip0">
<rect width="132" height="132" fill="white" transform="translate(0.788086 0.404785)"/>
</clipPath>
</defs>
</svg>
