<svg width="132" height="133" viewBox="0 0 132 133" fill="none" xmlns="http://www.w3.org/2000/svg">
<g clip-path="url(#clip0)">
<path d="M81.5568 40.7999C82.564 41.8084 83.9743 41.8834 84.7802 41.565C90.6872 39.2434 97.3101 42.3042 99.4175 48.2372C99.7751 49.2435 100.88 49.7691 101.887 49.4121C102.893 49.0545 103.419 47.949 103.062 46.9427C100.31 39.1968 91.8077 35.0447 83.9694 37.7432L80.3881 34.1617L83.9823 30.5675C89.2055 32.3645 94.9352 31.1762 99.0326 27.4199C103.235 23.5671 104.893 17.7656 103.359 12.278C102.795 10.2653 100.253 9.55452 98.7436 11.0645L90.2471 19.561L86.6228 18.5898L85.6513 14.9652L94.1473 6.46927C95.6429 4.97499 94.9622 2.42059 92.9335 1.85443C87.514 0.338235 81.7524 1.95137 77.8971 6.06271C74.0139 10.2042 72.8015 15.8676 74.6451 21.2308L71.0509 24.825L67.4717 21.2458C70.8689 11.3796 63.3351 0.934298 52.7973 1.29317C44.851 1.52005 38.4322 7.92153 38.1852 15.8604C37.8245 26.2329 48.0664 34.0444 58.136 30.584L61.7145 34.1622L58.1219 37.7546C46.4932 33.758 35.5318 44.5495 38.7457 56.043C39.309 58.0576 41.8513 58.7663 43.3606 57.2573L51.857 48.7608L55.4813 49.732L56.4525 53.3566L47.9563 61.8531C47.2551 62.5543 46.9867 63.5454 47.238 64.5047C47.4866 65.4516 48.227 66.2039 49.1706 66.4677C60.858 69.7354 71.3848 58.5074 67.4593 47.0913L71.0514 43.4991L74.6317 47.0791C74.2395 48.22 73.9858 49.411 73.8781 50.6148C73.0172 59.5506 80.3956 67.3772 89.3484 67.0305C95.4588 66.8405 100.802 63.0197 102.962 57.297C103.339 56.298 102.835 55.1824 101.835 54.8055C100.837 54.4286 99.7209 54.9326 99.3438 55.9319C97.7389 60.1845 93.7683 63.0238 89.2164 63.1653C82.5084 63.4175 77.0971 57.5378 77.729 50.9724C77.8883 49.1924 78.3748 48.1898 78.4519 47.8307C78.7172 46.5929 78.3429 45.3211 77.4503 44.428L73.786 40.7638L77.6535 36.8963L81.5568 40.7999ZM60.7874 27.7661C59.6703 26.648 58.0742 26.4884 57.1185 26.8411C49.5643 29.6376 41.7796 23.7731 42.0503 15.9877C42.2342 10.0843 47.0032 5.32742 52.9192 5.15856C60.9091 4.88476 66.5632 13.0267 63.6496 20.435C63.3433 21.2118 63.3854 22.629 64.414 23.6582L68.3165 27.5604L64.4491 31.4278L60.7874 27.7661ZM64.4148 44.6655C63.5352 45.5449 63.2516 46.8713 63.6927 48.0444C65.2024 52.0637 64.3681 56.3563 61.4608 59.5276C59.0113 62.1991 55.6394 63.4719 52.1628 63.1151L59.6386 55.6395C60.3336 54.9442 60.6077 53.9222 60.353 52.972L59.0518 48.1155C58.7978 47.165 58.0494 46.4163 57.0991 46.1616L52.2394 44.8594C51.2901 44.6062 50.2684 44.88 49.5736 45.5745L42.0988 53.0493C41.3024 45.2489 48.9628 38.6427 56.9339 41.4354C58.2737 41.9048 59.7858 41.5601 60.7876 40.5585C63.267 38.0792 75.4726 25.8735 77.4498 23.8964C78.4514 22.8945 78.7956 21.3822 78.3264 20.0428C76.9241 16.039 77.818 11.8019 80.7184 8.70863C83.1642 6.09983 86.506 4.8546 89.9401 5.20806L82.4648 12.6833C81.7702 13.3787 81.4967 14.4004 81.7509 15.3501L83.0523 20.2076C83.3068 21.1576 84.055 21.9058 85.0047 22.1603L89.863 23.462C90.8127 23.7164 91.8345 23.4424 92.5303 22.7476L100.006 15.2715C100.364 18.7481 99.0901 22.12 96.4186 24.5695C93.247 27.4771 88.9537 28.3109 84.9351 26.8011L84.9349 26.8009C83.7616 26.3613 82.4362 26.6444 81.557 27.5233C79.8047 29.2756 66.0684 43.0119 64.4148 44.6655Z" fill="#071D49"/>
<path d="M60.2462 13.2079L56.7745 9.73646C56.0792 9.04192 55.0569 8.76812 54.1079 9.02284L49.2513 10.324C48.301 10.578 47.5525 11.3261 47.2978 12.2767L45.9959 17.1349C45.7419 18.0842 46.0152 19.1059 46.7105 19.8022L50.182 23.2734C50.7056 23.7963 51.414 24.0806 52.1375 24.0806C52.6206 24.0806 52.3878 24.1108 57.706 22.6859C58.6568 22.4311 59.4055 21.6819 59.6586 20.7332L60.9603 15.8755L60.9606 15.8752C61.2145 14.926 60.9412 13.9043 60.2462 13.2079ZM56.0887 19.1154L52.4644 20.0866L49.8971 17.5193L50.8683 13.895L54.4928 12.9235L57.0601 15.4908L56.0887 19.1154Z" fill="#071D49"/>
<path d="M95.6573 48.7968L92.1856 45.3254C91.4903 44.6306 90.4683 44.357 89.5193 44.6117L84.6608 45.9132C83.7111 46.1676 82.9631 46.9161 82.7089 47.8656L81.4072 52.7233C81.1528 53.6728 81.4263 54.6945 82.1219 55.3911L85.592 58.8613C86.1159 59.3849 86.8246 59.6695 87.5486 59.6695C88.0317 59.6695 87.7974 59.7 93.1171 58.2745C94.0679 58.0201 94.8166 57.2708 95.0697 56.3221L96.3714 51.4644L96.3717 51.4641C96.6259 50.5141 96.3524 49.4924 95.6573 48.7968ZM91.4996 54.7041L87.8752 55.6752L85.3079 53.108L86.2791 49.4834L89.9037 48.5122L92.471 51.0795L91.4996 54.7041Z" fill="#071D49"/>
<path d="M129.165 57.6654C125.66 54.1604 120.036 54.0199 115.092 58.6438L94.4396 75.77C93.2872 73.2352 90.8094 70.6996 86.1144 70.6996C66.8666 70.6996 64.2851 70.3544 59.7089 72.0959C59.6919 72.1024 59.6746 72.1093 59.6579 72.1163L46.5535 77.5358L46.3713 77.0521C45.5228 74.8014 43.014 73.6642 40.7618 74.5147C26.9606 79.715 15.6354 83.9816 3.03015 88.7333C0.611091 89.6429 -0.610167 92.3381 0.301716 94.7582L13.4453 129.636C14.3535 132.047 17.0551 133.273 19.4706 132.364C20.8806 131.832 55.1933 118.902 57.203 118.144C59.4547 117.296 60.5917 114.788 59.7427 112.536L59.5723 112.084C65.948 109.377 66.4644 108.925 71.972 108.824C73.0399 108.805 73.8897 107.923 73.8698 106.855C73.85 105.787 72.9628 104.941 71.9009 104.957C65.6172 105.073 64.3978 105.832 58.2072 108.462L47.9176 81.157L61.1099 75.7014C64.9162 74.2577 67.1889 74.5676 86.1138 74.5676C88.2163 74.5676 89.6784 75.2907 90.5828 76.7778C91.2188 77.8237 91.3773 78.9249 91.4093 79.2128C91.3523 79.9734 90.9019 83.4992 87.4323 84.0881C82.1345 84.9876 70.7088 86.6234 70.594 86.6396C69.5368 86.791 68.8025 87.7707 68.9536 88.8274C69.1039 89.8783 70.0758 90.6185 71.1414 90.4679C71.2566 90.4514 82.7318 88.8084 88.0794 87.9006C92.9781 87.0692 94.7952 82.8928 95.1937 80.1683C118.687 60.6885 117.557 61.6318 117.732 61.4686C119.958 59.3873 123.28 57.5244 126.476 60.4456C130.092 64.0287 126.771 68.2932 126.009 69.1739C125.967 69.2198 97.7546 99.5305 97.7139 99.5764C93.7546 104.116 88.3983 104.868 86.2311 104.978C84.2761 104.978 82.5339 104.972 80.9692 104.964C80.9658 104.964 80.963 104.964 80.9596 104.964C79.8962 104.964 79.0315 105.824 79.0263 106.889C79.0212 107.957 79.8828 108.827 80.9506 108.832C81.4464 108.834 86.161 108.853 86.3714 108.843C89.0003 108.717 95.6452 107.813 100.607 102.142C128.872 71.7749 128.872 71.7747 128.885 71.7602C128.891 71.7528 128.898 71.745 128.905 71.7373C131.405 68.8715 134.271 62.6824 129.165 57.6654ZM18.1078 128.745C17.6899 128.902 17.2222 128.69 17.0649 128.273L3.9214 93.3951C3.7644 92.978 3.97271 92.5111 4.39372 92.3528C12.6829 89.2278 24.1226 84.9172 29.903 82.7394L43.6168 119.131L18.1078 128.745ZM56.1243 113.9C56.2179 114.148 56.0959 114.429 55.8402 114.525L47.2367 117.768L33.5229 81.3761L42.1272 78.1339L42.1277 78.1336C42.3808 78.0388 42.659 78.1653 42.7536 78.4164C43.2252 79.6692 55.6087 112.532 56.1243 113.9Z" fill="#071D49"/>
</g>
<defs>
<clipPath id="clip0">
<rect width="132" height="132" fill="white" transform="translate(6.10352e-05 0.974121)"/>
</clipPath>
</defs>
</svg>
