<?xml version="1.0" encoding="UTF-8" standalone="no"?><!-- Generator: Gravit.io --><svg xmlns="http://www.w3.org/2000/svg" xmlns:xlink="http://www.w3.org/1999/xlink" style="isolation:isolate" viewBox="0 0 384.427 156.389" width="384.427pt" height="156.389pt"><defs><clipPath id="_clipPath_vw4dGS1nsmML6dyYcCMbvTkVFIA7EER9"><rect width="384.427" height="156.389"/></clipPath></defs><g clip-path="url(#_clipPath_vw4dGS1nsmML6dyYcCMbvTkVFIA7EER9)"><rect width="384.427" height="156.389" style="fill:rgb(234,234,234)" fill-opacity="0"/><g><linearGradient id="_lgradient_6" x1="0.4999999999999999" y1="0" x2="0.49999999999999994" y2="1" gradientTransform="matrix(108.594,0,0,137.261,0,10.073)" gradientUnits="userSpaceOnUse"><stop offset="0%" stop-opacity="1" style="stop-color:rgb(6,154,240)"/><stop offset="100%" stop-opacity="1" style="stop-color:rgb(54,43,211)"/></linearGradient><path d=" M 64.441 124.588 L 85.219 124.588 C 85.497 124.588 85.723 124.814 85.723 125.092 L 85.723 144.146 C 85.723 145.925 84.279 147.353 82.5 147.333 L 67.075 147.16 C 65.298 147.14 63.855 145.68 63.855 143.903 L 63.855 125.174 C 63.855 124.851 64.118 124.588 64.441 124.588 Z  M 63.855 101.573 L 20.906 101.573 L 20.906 99.885 L 74.719 24.885 L 63.855 52.448 L 63.855 101.573 L 63.855 101.573 Z  M 108.594 104.338 L 108.594 116.51 C 108.594 118.666 106.843 120.416 104.688 120.416 L 3.158 120.416 C 1.415 120.416 0 119.001 0 117.258 L 0 102.01 L 0.844 98.408 L 62.694 11.701 C 63.335 10.802 64.752 10.073 65.855 10.073 L 82.594 10.073 C 83.978 10.073 85.109 11.196 85.119 12.58 L 85.719 100.764 C 85.721 101.042 85.948 101.268 86.227 101.268 L 105.523 101.268 C 107.218 101.268 108.594 102.644 108.594 104.338 L 108.594 104.338 Z " fill-rule="evenodd" fill="url(#_lgradient_6)"/><linearGradient id="_lgradient_7" x1="0.4999999999999999" y1="0" x2="0.49999999999999994" y2="1" gradientTransform="matrix(108.594,0,0,137.261,275.833,10.073)" gradientUnits="userSpaceOnUse"><stop offset="0%" stop-opacity="1" style="stop-color:rgb(6,154,240)"/><stop offset="100%" stop-opacity="1" style="stop-color:rgb(54,43,211)"/></linearGradient><path d=" M 340.275 124.588 L 361.052 124.588 C 361.33 124.588 361.556 124.814 361.556 125.092 L 361.556 144.146 C 361.556 145.925 360.112 147.353 358.333 147.333 L 342.909 147.16 C 341.132 147.14 339.689 145.68 339.689 143.903 L 339.689 125.174 C 339.689 124.851 339.951 124.588 340.275 124.588 Z  M 339.689 101.573 L 296.74 101.573 L 296.74 99.885 L 350.552 24.885 L 339.689 52.448 L 339.689 101.573 L 339.689 101.573 Z  M 384.427 104.338 L 384.427 116.51 C 384.427 118.666 382.677 120.416 380.521 120.416 L 278.992 120.416 C 277.248 120.416 275.833 119.001 275.833 117.258 L 275.833 102.01 L 276.677 98.408 L 338.527 11.701 C 339.168 10.802 340.585 10.073 341.689 10.073 L 358.427 10.073 C 359.811 10.073 360.943 11.196 360.952 12.58 L 361.553 100.764 C 361.554 101.042 361.782 101.268 362.06 101.268 L 381.357 101.268 C 383.051 101.268 384.427 102.644 384.427 104.338 L 384.427 104.338 Z " fill-rule="evenodd" fill="url(#_lgradient_7)"/><linearGradient id="_lgradient_8" x1="0.4999999999999999" y1="0" x2="0.49999999999999994" y2="1" gradientTransform="matrix(107.423,0,0,156.389,139.073,0)" gradientUnits="userSpaceOnUse"><stop offset="0%" stop-opacity="1" style="stop-color:rgb(6,154,240)"/><stop offset="100%" stop-opacity="1" style="stop-color:rgb(54,43,211)"/></linearGradient><path d=" M 189.47 12.148 L 189.47 55.875 L 149.026 72.496 L 189.47 12.148 L 189.47 12.148 L 189.47 12.148 L 189.47 12.148 L 189.47 12.148 L 189.47 12.148 L 189.47 12.148 L 189.47 12.148 Z  M 189.47 61.255 L 189.47 100.976 L 147.984 78.289 L 189.47 61.255 L 189.47 61.255 L 189.47 61.255 L 189.47 61.255 L 189.47 61.255 L 189.47 61.255 Z  M 195.304 12.148 L 195.304 55.875 L 235.748 72.496 L 195.304 12.148 L 195.304 12.148 L 195.304 12.148 L 195.304 12.148 Z  M 195.304 61.255 L 195.304 100.976 L 236.789 78.289 L 195.304 61.255 L 195.304 61.255 Z  M 190.242 1.603 L 139.324 77.575 C 138.815 78.335 139.105 79.335 139.97 79.808 L 191.131 107.747 C 192.074 108.262 193.603 108.261 194.545 107.746 L 245.599 79.809 C 246.464 79.335 246.754 78.334 246.246 77.575 L 195.431 1.605 C 194 -0.534 191.675 -0.535 190.242 1.603 L 190.242 1.603 L 190.242 1.603 L 190.242 1.603 L 190.242 1.603 L 190.242 1.603 L 190.242 1.603 L 190.242 1.603 Z  M 195.304 119.896 L 195.304 145.569 L 232.222 99.788 L 195.304 119.896 L 195.304 119.896 L 195.304 119.896 L 195.304 119.896 Z  M 189.47 119.896 L 189.47 145.569 L 152.552 99.788 L 189.47 119.896 L 189.47 119.896 Z  M 192.5 115.333 L 241.568 88.795 Q 243.651 87.966 245.065 89.141 Q 246.478 90.316 245.575 91.862 L 194.448 155.641 C 194.032 156.18 193.401 156.371 192.5 156.389 L 192.5 156.389 C 191.598 156.371 190.968 156.18 190.552 155.641 L 139.425 91.862 Q 138.522 90.316 139.935 89.141 Q 141.348 87.966 143.432 88.795 L 192.5 115.333 L 192.5 115.333 L 192.5 115.333 L 192.5 115.333 Z " fill-rule="evenodd" fill="url(#_lgradient_8)"/></g></g></svg>