<?xml version="1.0" encoding="UTF-8" standalone="no"?><!-- Generator: Gravit.io --><svg xmlns="http://www.w3.org/2000/svg" xmlns:xlink="http://www.w3.org/1999/xlink" style="isolation:isolate" viewBox="0 0 379.427 156.389" width="379.427pt" height="156.389pt"><defs><clipPath id="_clipPath_u769VGBqbVzPGSVNpmM8RwYA8wN33e4R"><rect width="379.427" height="156.389"/></clipPath></defs><g clip-path="url(#_clipPath_u769VGBqbVzPGSVNpmM8RwYA8wN33e4R)"><rect width="379.427" height="156.389" style="fill:rgb(234,234,234)" fill-opacity="0"/><g><linearGradient id="_lgradient_0" x1="0.5" y1="0" x2="0.5000000000000001" y2="1" gradientTransform="matrix(21.867,0,0,22.781,63.855,124.588)" gradientUnits="userSpaceOnUse"><stop offset="0%" stop-opacity="1" style="stop-color:rgb(5,165,243)"/><stop offset="100%" stop-opacity="1" style="stop-color:rgb(0,154,244)"/></linearGradient><path d=" M 64.441 124.588 L 85.219 124.588 C 85.497 124.588 85.723 124.814 85.723 125.092 L 85.723 144.146 C 85.723 145.925 84.279 147.353 82.5 147.333 L 67.075 147.16 C 65.298 147.14 63.855 145.68 63.855 143.903 L 63.855 125.174 C 63.855 124.851 64.118 124.588 64.441 124.588 Z " fill="url(#_lgradient_0)"/><linearGradient id="_lgradient_1" x1="0.5" y1="0" x2="0.5000000000000001" y2="1" gradientTransform="matrix(108.594,0,0,110.344,0,10.073)" gradientUnits="userSpaceOnUse"><stop offset="2.608695652173913%" stop-opacity="1" style="stop-color:rgb(37,234,239)"/><stop offset="100%" stop-opacity="1" style="stop-color:rgb(8,172,242)"/></linearGradient><path d=" M 108.594 104.338 L 108.594 116.51 C 108.594 118.666 106.843 120.416 104.688 120.416 L 3.158 120.416 C 1.415 120.416 0 119.001 0 117.258 L 0 102.01 L 0.844 98.408 L 62.694 11.701 C 63.335 10.802 64.752 10.073 65.855 10.073 L 82.594 10.073 C 83.978 10.073 85.109 11.196 85.119 12.58 L 85.719 100.764 C 85.721 101.042 85.948 101.268 86.227 101.268 L 105.523 101.268 C 107.218 101.268 108.594 102.644 108.594 104.338 Z  M 63.855 101.573 L 20.906 101.573 L 20.906 99.885 L 74.719 24.885 L 63.855 52.448 L 63.855 101.573 Z " fill-rule="evenodd" fill="url(#_lgradient_1)"/></g><g><linearGradient id="_lgradient_2" x1="0.5" y1="0" x2="0.5000000000000001" y2="1" gradientTransform="matrix(21.867,0,0,22.781,334.689,124.588)" gradientUnits="userSpaceOnUse"><stop offset="0%" stop-opacity="1" style="stop-color:rgb(5,165,243)"/><stop offset="100%" stop-opacity="1" style="stop-color:rgb(0,154,244)"/></linearGradient><path d=" M 335.275 124.588 L 356.052 124.588 C 356.33 124.588 356.556 124.814 356.556 125.092 L 356.556 144.146 C 356.556 145.925 355.112 147.353 353.333 147.333 L 337.909 147.16 C 336.132 147.14 334.689 145.68 334.689 143.903 L 334.689 125.174 C 334.689 124.851 334.951 124.588 335.275 124.588 Z " fill="url(#_lgradient_2)"/><linearGradient id="_lgradient_3" x1="0.5" y1="0" x2="0.5000000000000001" y2="1" gradientTransform="matrix(108.594,0,0,110.344,270.833,10.073)" gradientUnits="userSpaceOnUse"><stop offset="2.608695652173913%" stop-opacity="1" style="stop-color:rgb(37,234,239)"/><stop offset="100%" stop-opacity="1" style="stop-color:rgb(8,172,242)"/></linearGradient><path d=" M 379.427 104.338 L 379.427 116.51 C 379.427 118.666 377.677 120.416 375.521 120.416 L 273.992 120.416 C 272.248 120.416 270.833 119.001 270.833 117.258 L 270.833 102.01 L 271.677 98.408 L 333.527 11.701 C 334.168 10.802 335.585 10.073 336.689 10.073 L 353.427 10.073 C 354.811 10.073 355.943 11.196 355.952 12.58 L 356.553 100.764 C 356.554 101.042 356.782 101.268 357.06 101.268 L 376.357 101.268 C 378.051 101.268 379.427 102.644 379.427 104.338 Z  M 334.689 101.573 L 291.74 101.573 L 291.74 99.885 L 345.552 24.885 L 334.689 52.448 L 334.689 101.573 Z " fill-rule="evenodd" fill="url(#_lgradient_3)"/></g><linearGradient id="_lgradient_4" x1="0.5" y1="0" x2="0.5000000000000001" y2="1" gradientTransform="matrix(107.423,0,0,108.133,136.073,0)" gradientUnits="userSpaceOnUse"><stop offset="2.608695652173913%" stop-opacity="1" style="stop-color:rgb(37,234,239)"/><stop offset="100%" stop-opacity="1" style="stop-color:rgb(8,172,242)"/></linearGradient><path d=" M 186.47 12.148 L 186.47 55.875 L 146.026 72.496 L 186.47 12.148 L 186.47 12.148 L 186.47 12.148 L 186.47 12.148 L 186.47 12.148 L 186.47 12.148 L 186.47 12.148 Z  M 186.47 61.255 L 186.47 100.976 L 144.984 78.289 L 186.47 61.255 L 186.47 61.255 L 186.47 61.255 L 186.47 61.255 L 186.47 61.255 Z  M 192.304 12.148 L 192.304 55.875 L 232.748 72.496 L 192.304 12.148 L 192.304 12.148 L 192.304 12.148 Z  M 187.242 1.603 L 136.324 77.575 C 135.815 78.335 136.105 79.335 136.97 79.808 L 188.131 107.747 C 189.074 108.262 190.603 108.261 191.545 107.746 L 242.599 79.809 C 243.464 79.335 243.754 78.334 243.246 77.575 L 192.431 1.605 C 191 -0.534 188.675 -0.535 187.242 1.603 L 187.242 1.603 L 187.242 1.603 L 187.242 1.603 L 187.242 1.603 L 187.242 1.603 L 187.242 1.603 Z  M 192.304 61.255 L 192.304 100.976 L 233.789 78.289 L 192.304 61.255 Z " fill-rule="evenodd" fill="url(#_lgradient_4)"/><linearGradient id="_lgradient_5" x1="0.5" y1="0" x2="0.5000000000000001" y2="1" gradientTransform="matrix(106.854,0,0,67.937,136.073,88.452)" gradientUnits="userSpaceOnUse"><stop offset="0%" stop-opacity="1" style="stop-color:rgb(5,165,243)"/><stop offset="100%" stop-opacity="1" style="stop-color:rgb(0,154,244)"/></linearGradient><path d=" M 192.304 119.896 L 192.304 145.569 L 229.222 99.788 L 192.304 119.896 L 192.304 119.896 L 192.304 119.896 Z  M 189.5 115.333 L 238.568 88.795 Q 240.651 87.966 242.065 89.141 Q 243.478 90.316 242.575 91.862 L 191.448 155.641 C 191.032 156.18 190.401 156.371 189.5 156.389 L 189.5 156.389 C 188.598 156.371 187.968 156.18 187.552 155.641 L 136.425 91.862 Q 135.522 90.316 136.935 89.141 Q 138.348 87.966 140.432 88.795 L 189.5 115.333 L 189.5 115.333 L 189.5 115.333 Z  M 186.47 119.896 L 186.47 145.569 L 149.552 99.788 L 186.47 119.896 Z " fill-rule="evenodd" fill="url(#_lgradient_5)"/></g></svg>