<svg width="320" height="476" viewBox="0 0 320 476" fill="none" xmlns="http://www.w3.org/2000/svg">
<path d="M0.457771 359.074C-1.7505 428.905 44.8411 475.957 160.372 474.867C263.166 480.194 316.482 441.71 319.303 359.074V316.2C319.303 309.964 314.215 304.901 307.95 304.901H239.835C233.569 304.901 228.487 309.964 228.487 316.2V359.074C224.377 380.241 214.083 392.923 197.265 396.779C170.153 401.408 145.574 401.748 125.163 396.779C106.579 394.593 95.7197 382.14 92.2572 359.074V116.469C94.3006 101.813 102.568 94.4873 111.06 88.5743C129.421 76.924 181.566 73.7478 206.045 88.5743C213.135 93.0574 224.141 99.9609 228.487 116.469V153.536C228.487 159.771 233.569 164.834 239.835 164.834H307.95C314.215 164.834 319.303 159.771 319.303 153.536V116.469C314.492 40.3382 261.405 1.62515 160.372 0.669922C55.6941 1.46692 2.50705 40.18 0.457771 116.469V359.074Z" fill="#009CDE"/>
</svg>
