<svg width="552" height="521" viewBox="0 0 552 521" fill="none" xmlns="http://www.w3.org/2000/svg">
<rect x="0.642855" y="-0.252336" width="363.182" height="362.636" rx="49.5" transform="matrix(0.907112 0.42089 0.378598 -0.925561 0.155247 366.363)" stroke="#6AD1E3"/>
<rect x="0.642855" y="-0.252336" width="283.267" height="282.352" rx="49.5" transform="matrix(0.907112 0.42089 0.378598 -0.925561 186.465 261.503)" stroke="#6AD1E3"/>
<path d="M11.6851 393.774C9.47679 463.605 56.0684 510.657 171.599 509.567C274.393 514.894 327.71 476.41 330.53 393.774V350.9C330.53 344.664 325.442 339.601 319.177 339.601H251.062C244.796 339.601 239.714 344.664 239.714 350.9V393.774C235.604 414.941 225.311 427.623 208.492 431.479C181.381 436.108 156.801 436.448 136.391 431.479C117.806 429.293 106.947 416.84 103.484 393.774V151.169C105.528 136.513 113.796 129.187 122.287 123.274C140.648 111.624 192.793 108.448 217.272 123.274C224.362 127.757 235.368 134.661 239.714 151.169V188.236C239.714 194.471 244.796 199.534 251.062 199.534H319.177C325.442 199.534 330.53 194.471 330.53 188.236V151.169C325.719 75.0382 272.632 36.3251 171.599 35.3699C66.9214 36.1669 13.7343 74.88 11.6851 151.169V393.774Z" fill="#009CDE"/>
</svg>
