<svg width="569" height="460" viewBox="0 0 569 460" fill="none" xmlns="http://www.w3.org/2000/svg">
<rect x="0.642855" y="-0.252336" width="320.801" height="320.319" rx="49.5" transform="matrix(0.907112 0.42089 0.378598 -0.925561 0.155247 323.641)" stroke="#0047BB"/>
<rect x="0.642855" y="-0.252336" width="250.187" height="249.378" rx="49.5" transform="matrix(0.907112 0.42089 0.378598 -0.925561 164.783 230.984)" stroke="#0047BB"/>
<path d="M339.025 2.77026H399.616C412.706 2.77026 420.161 12.2485 416.255 23.9224L338.109 257.625H473.911V13.8522C473.911 7.73642 479.226 2.77026 485.771 2.77026H556.922C563.467 2.77026 568.776 7.73642 568.776 13.8522V445.988C568.776 452.104 563.467 457.07 556.922 457.07H485.771C479.226 457.07 473.911 452.104 473.911 445.988V335.187H236.748C223.658 335.187 216.277 325.731 220.275 314.086L323.543 13.3233C325.542 7.50076 332.481 2.77026 339.025 2.77026Z" fill="#0047BB"/>
<path d="M213.865 381.848H274.455C287.545 381.848 294.933 391.303 290.947 402.954L276.411 445.408C274.203 451.846 266.545 457.07 259.311 457.07H199.6C186.511 457.07 179.166 447.627 183.201 435.993L198.345 392.384C200.369 386.567 207.32 381.848 213.865 381.848Z" fill="#0047BB"/>
</svg>
