<svg width="387" height="456" viewBox="0 0 387 456" fill="none" xmlns="http://www.w3.org/2000/svg">
<path d="M157.025 0.770264H217.616C230.706 0.770264 238.161 10.2485 234.255 21.9224L156.109 255.625H291.911V11.8522C291.911 5.73642 297.226 0.770264 303.771 0.770264H374.922C381.467 0.770264 386.776 5.73642 386.776 11.8522V443.988C386.776 450.104 381.467 455.07 374.922 455.07H303.771C297.226 455.07 291.911 450.104 291.911 443.988V333.187H54.7482C41.6583 333.187 34.2767 323.731 38.2751 312.086L141.543 11.3233C143.542 5.50076 150.481 0.770264 157.025 0.770264Z" fill="#0047BB"/>
<path d="M31.8652 379.848H92.4551C105.545 379.848 112.933 389.303 108.947 400.954L94.4112 443.408C92.2029 449.846 84.5446 455.07 77.3107 455.07H17.6004C4.51053 455.07 -2.83417 445.627 1.20105 433.993L16.3455 390.384C18.3693 384.567 25.3202 379.848 31.8652 379.848Z" fill="#0047BB"/>
</svg>
